{"glyphs":{"0":{"ha":794,"x_min":83,"x_max":711,"o":"m 620 80 q 598 53 620 80 q 522 4 575 26 q 398 -18 469 -18 q 273 4 326 -18 q 175 80 219 26 q 107 235 131 133 q 83 485 83 338 q 107 733 83 632 q 175 886 131 833 q 273 961 219 939 q 398 983 326 983 q 522 962 469 983 q 620 887 575 940 q 688 733 665 833 q 711 485 711 632 q 688 235 711 338 q 620 80 665 133 m 204 488 q 250 173 204 258 q 399 88 296 88 q 506 119 465 88 q 592 485 592 186 q 503 850 592 788 q 397 879 464 879 q 292 850 331 879 q 204 488 204 789 z "},"1":{"ha":704,"x_min":60,"x_max":661,"o":"m 107 0 l 107 100 l 339 97 l 349 860 l 342 860 l 138 644 l 60 719 l 332 975 l 457 965 l 457 97 l 661 100 l 661 0 l 107 0 z "},"2":{"ha":750,"x_min":71,"x_max":661,"o":"m 71 872 q 197 947 113 911 q 385 983 282 983 q 565 918 489 983 q 640 749 640 853 q 478 400 640 614 l 247 104 l 247 97 l 661 104 l 661 0 l 78 0 l 78 90 q 299 359 164 188 q 480 609 433 531 q 526 761 526 688 q 396 879 526 879 q 119 785 265 879 l 71 872 z "},"3":{"ha":699,"x_min":22,"x_max":613,"o":"m 340 86 q 456 127 424 86 q 489 271 489 168 q 444 419 489 374 q 300 465 400 465 l 171 465 l 171 557 q 392 589 349 572 q 461 682 451 613 q 464 725 464 700 q 433 849 464 814 q 278 883 401 883 q 88 867 225 883 l 74 961 q 288 983 160 983 q 583 740 583 983 q 565 631 583 676 q 517 564 546 585 q 428 521 464 526 l 428 515 q 547 461 493 507 q 613 273 613 404 q 542 62 613 142 q 322 -18 472 -18 q 172 2 247 -18 q 60 43 97 22 l 22 64 l 67 153 q 340 86 214 86 z "},"4":{"ha":746,"x_min":40,"x_max":678,"o":"m 589 701 l 589 328 l 678 331 l 678 225 l 589 225 l 590 0 l 472 0 l 476 225 l 40 225 l 40 313 l 260 981 l 374 965 l 164 329 l 164 322 l 476 328 l 503 701 l 589 701 z "},"5":{"ha":707,"x_min":38,"x_max":628,"o":"m 585 965 l 585 864 l 272 869 l 232 574 q 554 486 468 565 q 628 280 628 418 q 550 62 628 142 q 338 -18 472 -18 q 186 8 261 -18 q 75 58 111 33 l 38 83 l 82 171 q 218 112 138 138 q 360 86 299 86 q 449 105 421 86 q 492 172 478 124 q 506 274 506 221 q 465 430 506 390 q 214 469 424 469 l 104 467 l 175 965 l 585 965 z "},"6":{"ha":767,"x_min":83,"x_max":683,"o":"m 683 294 q 683 218 683 294 q 606 63 683 143 q 383 -18 528 -18 q 161 92 239 -18 q 83 458 83 203 q 190 881 83 763 q 303 960 242 936 q 428 983 364 983 q 611 956 543 983 l 635 947 l 608 849 q 419 878 511 878 q 281 832 326 878 q 208 568 218 767 q 356 578 282 578 q 599 511 514 578 q 683 294 683 444 m 263 119 q 399 81 304 81 q 531 126 494 81 q 568 284 568 172 q 531 437 568 396 q 383 478 493 478 q 206 458 300 478 l 206 347 q 263 119 206 176 z "},"7":{"ha":654,"x_min":33,"x_max":622,"o":"m 33 965 l 622 965 l 622 889 l 228 -10 l 104 1 l 504 860 l 504 868 l 33 860 l 33 965 z "},"8":{"ha":750,"x_min":65,"x_max":683,"o":"m 94 742 q 167 917 94 850 q 375 983 240 983 q 582 915 510 983 q 654 740 654 847 q 508 499 654 582 q 667 343 635 426 q 683 253 683 303 q 598 62 683 142 q 370 -18 513 -18 q 147 66 228 -18 q 65 264 65 150 q 114 415 65 349 q 226 508 163 482 q 94 742 94 603 m 557 236 q 508 364 557 318 q 335 453 460 410 q 226 382 260 425 q 192 253 192 339 q 374 82 192 82 q 557 236 557 82 m 375 888 q 248 853 285 888 q 211 750 211 818 q 254 634 211 682 q 399 546 297 586 q 536 739 536 594 q 375 888 536 888 z "},"9":{"ha":764,"x_min":83,"x_max":681,"o":"m 371 389 q 160 459 236 389 q 83 675 83 529 q 160 902 83 821 q 379 983 236 983 q 601 872 522 983 q 681 492 681 760 q 374 -18 681 -18 q 244 3 310 -18 q 144 44 178 24 l 110 67 l 153 154 q 264 103 194 126 q 392 81 333 81 q 482 115 450 81 q 535 228 514 150 q 557 410 557 307 q 371 389 456 389 m 485 861 q 356 883 444 883 q 233 835 267 883 q 199 683 199 786 q 229 537 199 579 q 365 494 260 494 q 557 528 457 494 q 485 861 557 821 z "}," ":{"ha":313,"x_min":0,"x_max":0,"o":""},"!":{"ha":372,"x_min":111,"x_max":261,"o":"m 231 264 l 142 264 l 122 965 l 251 965 l 231 264 m 111 0 l 111 124 l 261 124 l 261 0 l 111 0 z "},"\"":{"ha":471,"x_min":78,"x_max":393,"o":"m 78 990 l 193 990 l 193 964 l 171 664 l 97 664 l 78 965 l 78 990 m 276 990 l 393 990 l 393 964 l 369 664 l 296 664 l 276 965 l 276 990 z "},"#":{"ha":758,"x_min":35,"x_max":707,"o":"m 35 276 l 35 375 l 164 375 l 197 585 l 82 585 l 82 685 l 213 685 l 257 965 l 357 965 l 313 685 l 490 685 l 535 965 l 636 965 l 592 685 l 707 685 l 707 585 l 576 585 l 543 375 l 658 375 l 658 276 l 528 276 l 485 0 l 385 0 l 428 276 l 250 276 l 207 0 l 106 0 l 149 276 l 35 276 m 297 585 l 265 375 l 443 375 l 475 585 l 297 585 z "},"$":{"ha":711,"x_min":50,"x_max":632,"o":"m 50 71 l 92 165 q 226 113 146 136 q 365 89 306 89 q 453 107 424 89 q 511 249 511 147 q 469 360 511 318 q 322 448 428 401 q 174 528 215 494 q 81 729 81 599 q 139 894 81 826 q 306 979 197 963 l 306 1114 l 408 1114 l 408 982 q 593 953 506 976 l 574 853 q 370 878 457 878 q 253 860 283 878 q 203 740 203 832 q 243 633 203 679 q 344 569 272 601 q 410 542 363 561 q 490 504 458 522 q 558 454 522 486 q 632 272 632 390 q 570 79 632 153 q 404 -12 508 6 l 404 -162 l 303 -162 l 303 -15 q 178 12 242 -10 q 50 71 115 33 z "},"%":{"ha":1110,"x_min":74,"x_max":1036,"o":"m 134 931 q 164 957 134 931 q 282 982 194 982 q 430 931 369 982 q 490 774 490 881 q 429 617 490 668 q 281 565 368 565 q 134 617 194 565 q 74 774 74 668 q 134 931 74 881 m 393 774 q 393 831 393 774 q 282 889 393 889 q 171 774 171 889 q 282 658 171 658 q 393 774 393 658 m 618 199 q 618 252 618 199 q 678 356 618 306 q 827 407 739 407 q 976 356 915 407 q 1036 199 1036 306 q 975 42 1036 93 q 826 -10 914 -10 q 678 42 739 -10 q 618 199 618 93 m 938 199 q 938 256 938 199 q 827 314 938 314 q 717 199 717 314 q 827 83 717 83 q 938 199 938 83 m 365 -12 l 261 -12 l 519 531 l 736 1018 l 839 1018 l 593 488 l 365 -12 z "},"&":{"ha":897,"x_min":54,"x_max":860,"o":"m 349 -18 q 135 67 217 -18 q 54 254 54 151 q 117 428 54 357 q 254 531 181 500 q 124 750 124 611 q 190 917 124 851 q 376 983 257 983 q 558 916 496 983 q 619 756 619 849 q 464 526 619 606 q 672 335 581 443 q 760 521 726 428 l 858 489 q 736 247 814 368 q 860 -14 804 140 l 749 -18 q 667 153 722 58 q 349 -18 521 -18 m 353 82 q 610 242 488 82 q 360 472 503 388 q 229 384 282 444 q 176 251 176 324 q 226 131 176 179 q 353 82 275 82 m 369 888 q 240 757 240 888 q 367 575 240 639 q 463 645 425 599 q 501 753 501 692 q 469 851 501 815 q 369 888 438 888 z "},"'":{"ha":271,"x_min":78,"x_max":193,"o":"m 78 990 l 193 990 l 193 964 l 171 664 l 97 664 l 78 965 l 78 990 z "},"(":{"ha":439,"x_min":96,"x_max":396,"o":"m 396 1014 q 214 458 214 899 q 396 -100 214 17 l 343 -172 q 96 458 96 -24 q 343 1088 96 939 l 396 1014 z "},")":{"ha":439,"x_min":43,"x_max":343,"o":"m 94 1088 q 343 458 343 939 q 94 -172 343 -24 l 43 -100 q 225 458 225 17 q 43 1014 225 899 l 94 1088 z "},"*":{"ha":575,"x_min":50,"x_max":525,"o":"m 228 982 l 347 982 l 347 956 l 324 803 l 463 872 l 488 882 l 525 767 l 499 758 l 340 732 l 482 596 l 392 519 l 376 540 l 286 685 l 194 540 l 179 519 l 90 596 l 108 615 l 232 732 l 75 758 l 50 767 l 86 882 l 113 872 l 250 803 l 228 956 l 228 982 z "},"+":{"ha":863,"x_min":72,"x_max":790,"o":"m 72 357 l 72 456 l 379 456 l 379 768 l 482 768 l 482 456 l 790 456 l 790 357 l 482 357 l 482 44 l 379 44 l 379 357 l 72 357 z "},",":{"ha":375,"x_min":86,"x_max":244,"o":"m 131 -50 l 131 117 l 244 117 l 244 19 q 142 -231 243 -147 l 86 -190 q 131 -50 131 -136 z "},"-":{"ha":446,"x_min":64,"x_max":382,"o":"m 64 406 l 64 504 l 382 504 l 382 406 l 64 406 z "},".":{"ha":353,"x_min":106,"x_max":247,"o":"m 106 0 l 106 124 l 247 124 l 247 0 l 106 0 z "},"/":{"ha":597,"x_min":6,"x_max":567,"o":"m 128 -136 l 6 -136 l 242 443 l 443 965 l 567 965 l 336 400 l 128 -136 z "},":":{"ha":436,"x_min":143,"x_max":293,"o":"m 143 0 l 143 124 l 293 124 l 293 0 l 143 0 m 143 638 l 143 761 l 293 761 l 293 638 l 143 638 z "},";":{"ha":433,"x_min":113,"x_max":290,"o":"m 157 -50 l 157 117 l 271 117 l 271 19 q 168 -231 269 -147 l 113 -190 q 157 -50 157 -136 m 140 638 l 140 761 l 290 761 l 290 638 l 140 638 z "},"<":{"ha":878,"x_min":104,"x_max":806,"o":"m 104 357 l 104 456 l 806 789 l 806 672 l 222 411 l 222 403 l 806 138 l 806 22 l 104 357 z "},"=":{"ha":858,"x_min":72,"x_max":786,"o":"m 72 465 l 72 565 l 786 565 l 786 465 l 72 465 m 72 249 l 72 349 l 786 349 l 786 249 l 72 249 z "},">":{"ha":882,"x_min":78,"x_max":778,"o":"m 778 456 l 778 357 l 78 22 l 78 138 l 660 403 l 660 411 l 78 672 l 78 789 l 778 456 z "},"?":{"ha":642,"x_min":43,"x_max":600,"o":"m 306 265 l 208 265 l 208 279 q 236 411 208 356 q 303 499 264 467 q 383 561 343 531 q 479 740 479 633 q 424 858 479 824 q 344 876 401 876 q 221 858 286 876 q 119 819 156 839 l 85 801 q 43 896 64 849 q 178 957 97 931 q 324 983 258 983 q 523 912 446 983 q 600 729 600 840 q 569 598 600 654 q 496 507 539 542 q 410 442 453 472 q 306 265 306 365 m 183 0 l 183 124 l 333 124 l 333 0 l 183 0 z "},"@":{"ha":1160,"x_min":92,"x_max":1063,"o":"m 797 172 q 717 215 740 172 q 690 338 693 257 l 685 338 q 508 172 604 172 q 399 241 447 172 q 351 471 351 310 q 406 699 351 632 q 571 765 460 765 q 789 731 653 765 q 786 458 786 546 q 787 340 786 369 q 790 292 788 310 q 797 271 793 275 q 810 267 801 267 q 909 344 857 267 q 961 540 961 422 q 865 783 961 693 q 594 872 768 872 q 308 768 419 872 q 196 468 196 664 q 307 160 196 272 q 578 47 418 47 q 699 60 636 47 l 710 -33 q 574 -53 654 -53 q 344 2 451 -53 q 164 176 236 57 q 92 441 92 296 q 136 688 92 586 q 254 850 181 789 q 596 975 404 975 q 925 858 788 975 q 1063 544 1063 742 q 979 281 1063 389 q 797 172 896 172 m 678 647 q 573 660 632 660 q 499 646 514 660 q 469 452 469 621 q 524 283 469 283 q 625 410 572 283 q 678 647 678 538 z "},"A":{"ha":715,"x_min":7,"x_max":697,"o":"m 131 0 l 7 0 l 279 965 l 425 965 l 697 0 l 572 0 l 506 258 l 199 258 l 131 0 m 483 356 l 356 871 l 347 871 l 219 356 l 483 356 z "},"B":{"ha":853,"x_min":146,"x_max":736,"o":"m 439 983 q 711 726 711 983 q 695 625 711 669 q 656 558 679 581 q 572 508 610 515 l 556 506 l 556 501 q 665 457 608 499 q 716 389 696 435 q 736 269 736 343 q 712 135 736 196 q 644 42 688 74 q 449 -18 565 -18 q 146 4 329 -18 l 153 449 l 146 967 q 439 983 307 983 m 265 88 q 462 72 374 72 q 581 119 550 72 q 611 270 611 165 q 566 416 611 375 q 433 457 521 457 l 263 457 l 265 88 m 263 549 q 442 547 357 547 q 559 587 528 547 q 590 723 590 626 q 555 858 590 819 q 435 897 519 897 q 263 886 354 897 l 263 549 z "},"C":{"ha":810,"x_min":100,"x_max":731,"o":"m 467 878 q 297 840 328 878 q 226 468 226 754 q 252 240 226 332 q 312 114 278 147 q 414 81 346 81 q 549 100 482 81 q 653 139 617 119 l 690 158 l 731 67 q 692 43 717 57 q 590 6 668 29 q 433 -18 513 -18 q 100 472 100 -18 q 244 925 100 819 q 341 971 290 958 q 495 983 392 983 q 690 961 599 983 l 676 861 q 467 878 549 878 z "},"D":{"ha":876,"x_min":146,"x_max":776,"o":"m 146 967 q 424 983 329 983 q 580 957 518 983 q 678 887 642 931 q 739 778 715 843 q 776 494 776 669 q 419 -18 776 -18 l 146 0 l 146 967 m 404 85 q 569 124 531 85 q 646 495 646 200 q 572 854 646 790 q 438 882 540 882 l 261 872 l 263 99 q 404 85 351 85 z "},"E":{"ha":714,"x_min":146,"x_max":619,"o":"m 146 0 l 146 965 l 619 965 l 619 861 l 263 865 l 256 540 l 586 540 l 586 442 l 256 442 l 263 101 l 619 104 l 619 0 l 146 0 z "},"F":{"ha":694,"x_min":146,"x_max":619,"o":"m 576 442 l 256 442 l 263 0 l 146 0 l 146 965 l 619 965 l 619 860 l 261 864 l 256 539 l 576 540 l 576 442 z "},"G":{"ha":850,"x_min":100,"x_max":721,"o":"m 299 128 q 448 83 338 83 q 610 104 558 83 l 610 410 l 463 417 l 463 503 l 721 503 l 721 36 q 460 -18 615 -18 q 347 -6 397 -18 q 249 39 297 6 q 169 128 201 72 q 100 486 100 250 q 206 890 100 785 q 322 963 258 943 q 503 983 386 983 q 715 960 621 983 l 701 860 q 469 878 544 878 q 296 840 332 878 q 225 489 226 768 q 299 128 226 208 z "},"H":{"ha":924,"x_min":146,"x_max":778,"o":"m 146 0 l 146 965 l 263 965 l 258 543 l 665 543 l 663 965 l 778 965 l 778 0 l 663 0 l 667 440 l 258 440 l 263 0 l 146 0 z "},"I":{"ha":410,"x_min":146,"x_max":264,"o":"m 257 539 l 264 0 l 146 -1 l 151 442 l 146 965 l 264 965 l 257 539 z "},"J":{"ha":439,"x_min":-10,"x_max":306,"o":"m 306 965 l 306 328 q 78 -18 306 -18 l -10 -8 l 3 92 q 101 83 69 83 q 150 96 132 83 q 189 310 189 125 l 189 965 l 306 965 z "},"K":{"ha":803,"x_min":146,"x_max":804,"o":"m 656 0 l 265 489 l 632 965 l 768 965 l 393 496 l 393 488 l 804 0 l 656 0 m 264 965 l 264 0 l 146 0 l 153 490 l 146 965 l 264 965 z "},"L":{"ha":619,"x_min":146,"x_max":604,"o":"m 146 0 l 146 965 l 263 965 l 256 104 l 604 107 l 604 0 l 146 0 z "},"M":{"ha":1103,"x_min":140,"x_max":963,"o":"m 618 251 l 486 251 l 271 875 l 263 875 l 257 0 l 140 0 l 169 965 l 342 965 l 547 342 l 554 342 l 758 965 l 931 965 l 963 0 l 846 0 l 838 875 l 831 875 l 618 251 z "},"N":{"ha":940,"x_min":146,"x_max":794,"o":"m 146 965 l 308 965 l 694 110 l 701 110 l 681 965 l 794 965 l 794 0 l 632 0 l 247 856 l 242 856 l 260 0 l 146 0 l 146 965 z "},"O":{"ha":911,"x_min":100,"x_max":811,"o":"m 594 4 q 565 -7 594 4 q 456 -18 535 -18 q 317 4 376 -18 q 206 81 257 26 q 100 485 100 190 q 206 886 100 778 q 317 961 257 939 q 456 983 376 983 q 594 961 535 983 q 706 886 654 939 q 811 485 811 778 q 706 81 811 190 q 594 4 654 26 m 321 851 q 298 838 321 851 q 250 738 275 825 q 225 501 225 651 q 238 274 225 351 q 281 155 250 196 q 351 101 313 114 q 467 89 390 89 q 589 114 543 89 q 688 481 688 168 q 590 851 688 796 q 456 878 544 878 q 321 851 367 878 z "},"P":{"ha":807,"x_min":146,"x_max":725,"o":"m 263 0 l 146 0 l 151 447 l 146 964 q 453 983 317 983 q 725 660 725 983 q 436 321 725 321 l 263 329 l 263 0 m 263 436 q 448 419 361 419 q 561 446 535 419 q 601 664 601 488 q 554 872 601 840 q 429 894 522 894 q 263 879 336 894 l 263 436 z "},"Q":{"ha":921,"x_min":100,"x_max":860,"o":"m 576 -3 q 451 -18 525 -18 q 317 4 376 -18 q 206 81 257 26 q 100 485 100 190 q 206 886 100 778 q 317 961 257 939 q 456 983 376 983 q 594 961 535 983 q 706 886 654 939 q 811 472 811 778 q 669 51 811 165 l 669 43 l 860 -19 l 814 -128 l 576 -3 m 321 851 q 298 838 321 851 q 250 738 275 825 q 225 501 225 651 q 238 274 225 351 q 281 155 250 196 q 351 101 313 114 q 467 89 390 89 q 589 114 543 89 q 688 481 688 168 q 590 851 688 796 q 456 878 544 878 q 321 851 367 878 z "},"R":{"ha":882,"x_min":146,"x_max":776,"o":"m 264 0 l 146 0 l 153 457 l 149 965 q 456 983 283 983 q 764 683 764 983 q 558 397 764 446 l 558 392 l 776 0 l 638 0 l 439 383 l 264 390 l 264 0 m 263 494 q 481 481 393 481 q 604 527 568 481 q 640 685 640 574 q 586 875 640 843 q 467 894 554 894 q 265 879 381 894 l 263 494 z "},"S":{"ha":710,"x_min":50,"x_max":632,"o":"m 50 71 l 92 165 q 226 113 146 136 q 365 89 306 89 q 453 107 424 89 q 511 249 511 147 q 469 361 511 319 q 363 430 426 403 q 277 466 299 457 q 215 497 256 475 q 158 537 175 518 q 119 583 140 556 q 81 738 81 635 q 155 912 81 840 q 367 983 229 983 q 593 953 474 983 l 574 853 q 370 878 457 878 q 253 860 283 878 q 203 740 203 832 q 243 633 203 679 q 344 569 272 601 q 410 542 363 561 q 490 504 458 522 q 558 454 522 486 q 632 264 632 390 q 551 60 632 138 q 342 -18 471 -18 q 201 4 274 -18 q 89 49 128 26 l 50 71 z "},"T":{"ha":658,"x_min":3,"x_max":656,"o":"m 3 965 l 656 965 l 656 860 l 385 864 l 388 0 l 272 0 l 275 864 l 3 860 l 3 965 z "},"U":{"ha":918,"x_min":146,"x_max":772,"o":"m 656 965 l 772 965 l 772 432 q 696 80 772 178 q 459 -18 619 -18 q 222 78 299 -18 q 146 419 146 175 l 146 965 l 263 965 l 263 457 q 279 212 263 288 q 333 112 296 136 q 441 88 371 88 q 542 95 511 88 q 599 123 574 103 q 633 186 624 143 q 656 457 656 275 l 656 965 z "},"V":{"ha":733,"x_min":26,"x_max":699,"o":"m 367 93 l 574 965 l 699 965 l 438 0 l 286 0 l 26 965 l 150 965 l 358 93 l 367 93 z "},"W":{"ha":1039,"x_min":46,"x_max":979,"o":"m 433 732 l 592 732 l 751 103 l 760 103 l 860 965 l 979 965 l 838 0 l 679 0 l 517 632 l 510 632 l 350 0 l 183 0 l 46 965 l 165 965 l 267 103 l 274 103 l 433 732 z "},"X":{"ha":744,"x_min":14,"x_max":714,"o":"m 14 0 l 292 478 l 21 965 l 157 965 l 357 556 l 365 556 l 571 965 l 706 965 l 436 474 l 714 0 l 579 0 l 369 394 l 363 394 l 149 0 l 14 0 z "},"Y":{"ha":710,"x_min":7,"x_max":689,"o":"m 288 0 l 290 360 l 7 965 l 138 965 l 344 457 l 350 457 l 558 965 l 689 965 l 404 358 l 407 0 l 288 0 z "},"Z":{"ha":738,"x_min":40,"x_max":679,"o":"m 40 0 l 40 106 l 543 857 l 543 865 l 68 860 l 68 965 l 674 965 l 674 857 l 176 108 l 176 101 l 679 106 l 679 0 l 40 0 z "},"[":{"ha":432,"x_min":147,"x_max":375,"o":"m 375 -172 l 147 -172 l 147 1088 l 375 1088 l 375 993 l 251 997 l 251 -82 l 375 -78 l 375 -172 z "},"\\":{"ha":600,"x_min":31,"x_max":592,"o":"m 592 -136 l 469 -136 l 261 400 l 31 965 l 154 965 l 356 443 l 592 -136 z "},"]":{"ha":432,"x_min":57,"x_max":285,"o":"m 285 1088 l 285 -172 l 57 -172 l 57 -78 l 182 -82 l 182 997 l 57 993 l 57 1088 l 285 1088 z "},"^":{"ha":703,"x_min":81,"x_max":622,"o":"m 185 439 l 81 451 l 283 965 l 419 965 l 622 451 l 519 439 l 357 875 l 347 875 l 185 439 z "},"_":{"ha":744,"x_min":22,"x_max":722,"o":"m 22 -224 l 22 -126 l 722 -126 l 722 -224 l 22 -224 z "},"`":{"ha":829,"x_min":236,"x_max":586,"o":"m 236 1021 l 278 1114 l 586 982 l 558 913 l 236 1021 z "},"a":{"ha":789,"x_min":75,"x_max":657,"o":"m 394 497 l 542 497 q 517 693 542 660 q 428 726 493 726 q 290 709 363 726 q 133 657 217 692 l 93 747 q 141 769 111 756 q 253 804 171 782 q 403 826 335 826 q 657 532 657 826 l 657 0 l 582 0 l 565 85 l 557 85 q 518 56 543 74 q 424 10 493 39 q 293 -18 354 -18 q 135 49 194 -18 q 75 248 75 117 q 157 438 75 379 q 394 497 239 497 m 542 390 q 373 400 482 400 q 233 374 264 400 q 196 251 196 344 q 223 121 196 157 q 305 85 250 85 q 417 103 360 85 q 542 160 474 122 l 542 390 z "},"b":{"ha":800,"x_min":125,"x_max":703,"o":"m 125 1046 l 240 1046 l 240 796 q 450 826 369 826 q 703 418 703 826 q 424 -18 703 -18 q 276 -2 367 -18 q 125 35 185 14 l 125 1046 m 240 107 q 410 83 328 83 q 518 106 492 83 q 582 415 582 165 q 538 701 582 665 q 453 724 508 724 q 240 688 354 724 l 240 107 z "},"c":{"ha":719,"x_min":97,"x_max":663,"o":"m 424 725 q 282 689 318 725 q 236 580 254 658 q 218 399 218 501 q 307 104 218 165 q 388 82 338 82 q 498 98 439 82 q 626 146 557 114 l 663 56 q 631 35 651 47 q 547 2 611 22 q 417 -18 482 -18 q 182 85 267 -18 q 97 413 97 189 q 190 732 97 638 q 446 826 283 826 q 643 804 551 826 l 629 707 q 424 725 479 725 z "},"d":{"ha":807,"x_min":97,"x_max":682,"o":"m 682 1046 l 682 0 l 606 0 l 590 83 l 582 83 q 550 56 571 72 q 469 10 529 39 q 353 -18 408 -18 q 166 84 235 -18 q 97 389 97 186 q 385 826 97 826 q 567 797 458 826 l 567 1046 l 682 1046 m 567 686 q 387 724 478 724 q 268 690 296 724 q 218 388 218 625 q 281 103 218 151 q 351 86 299 86 q 455 104 403 86 q 567 158 507 122 l 567 686 z "},"e":{"ha":790,"x_min":97,"x_max":700,"o":"m 419 -18 q 97 404 97 -18 q 417 826 97 826 q 629 738 558 826 q 700 446 700 650 l 700 360 l 219 360 q 279 117 219 172 q 382 83 317 83 q 611 122 499 83 l 649 136 l 678 42 q 419 -18 561 -18 m 550 685 q 414 726 522 726 q 263 669 306 726 q 219 451 219 613 l 582 458 q 550 685 582 632 z "},"f":{"ha":469,"x_min":69,"x_max":476,"o":"m 275 761 l 451 761 l 451 668 l 275 668 l 275 0 l 160 0 l 160 672 l 69 672 l 69 743 l 160 761 q 226 996 165 928 q 399 1064 288 1064 l 476 1061 l 468 964 q 365 967 397 967 q 314 956 333 967 q 275 761 275 931 z "},"g":{"ha":724,"x_min":65,"x_max":678,"o":"m 633 535 q 555 337 633 413 q 340 261 476 261 q 326 174 326 179 q 356 157 326 169 q 394 142 386 144 q 451 117 436 124 q 608 24 564 69 q 651 -72 651 -22 q 569 -202 651 -156 q 351 -249 488 -249 q 218 -240 285 -249 q 85 -211 151 -231 l 99 -107 q 395 -142 299 -142 q 519 -130 492 -142 q 547 -89 547 -118 q 515 -37 547 -60 q 337 48 471 -7 q 203 110 203 103 l 268 269 q 119 363 174 292 q 65 531 65 433 q 153 758 65 689 q 385 826 242 826 q 678 810 469 826 l 678 736 l 586 722 q 633 535 633 618 m 363 724 q 219 685 261 724 q 178 543 178 647 q 216 401 178 439 q 349 364 254 364 q 483 401 444 364 q 522 538 522 438 q 511 673 522 635 q 494 714 500 711 q 363 724 486 721 z "},"h":{"ha":811,"x_min":118,"x_max":689,"o":"m 233 0 l 118 0 l 118 1046 l 233 1046 l 233 758 q 478 826 390 826 q 642 756 596 826 q 689 538 689 686 l 689 0 l 574 0 l 574 497 q 546 689 574 649 q 472 718 525 718 q 268 675 372 718 l 233 660 l 233 0 z "},"i":{"ha":410,"x_min":135,"x_max":276,"o":"m 263 0 l 147 0 l 147 808 l 263 808 l 263 0 m 276 928 l 135 928 l 135 1046 l 276 1046 l 276 928 z "},"j":{"ha":426,"x_min":-24,"x_max":293,"o":"m 279 808 l 279 76 q 60 -247 279 -247 l -24 -240 l -11 -137 q 71 -143 28 -143 q 131 -131 114 -143 q 164 72 164 -108 l 164 808 l 279 808 m 293 928 l 151 928 l 151 1046 l 293 1046 l 293 928 z "},"k":{"ha":725,"x_min":125,"x_max":738,"o":"m 240 1046 l 240 0 l 125 0 l 132 446 l 125 1046 l 240 1046 m 242 436 l 564 808 l 713 808 l 369 443 l 369 436 l 738 0 l 588 0 l 242 436 z "},"l":{"ha":365,"x_min":125,"x_max":240,"o":"m 240 0 l 125 0 l 125 1046 l 240 1046 l 240 0 z "},"m":{"ha":1274,"x_min":140,"x_max":1151,"o":"m 492 717 q 256 644 400 717 l 256 0 l 140 0 l 140 808 l 218 808 l 231 729 l 238 729 q 513 826 400 826 q 615 799 572 826 q 678 722 658 771 q 764 772 731 754 q 853 808 797 790 q 960 826 910 826 q 1109 752 1067 826 q 1151 532 1151 678 l 1151 0 l 1036 0 l 1036 493 q 1016 685 1036 653 q 938 717 996 717 q 699 638 838 717 q 704 538 704 576 l 704 0 l 589 0 l 589 497 q 585 625 589 586 q 563 690 581 664 q 492 717 546 717 z "},"n":{"ha":835,"x_min":140,"x_max":713,"o":"m 256 0 l 140 0 l 140 808 l 218 808 l 231 729 l 238 729 q 526 826 404 826 q 678 742 636 826 q 713 538 713 671 l 713 0 l 596 0 l 596 497 q 576 686 596 656 q 500 717 556 717 q 256 643 394 717 l 256 0 z "},"o":{"ha":800,"x_min":97,"x_max":703,"o":"m 97 403 q 97 507 97 403 q 166 719 97 611 q 399 826 235 826 q 633 719 564 826 q 703 404 703 611 q 633 90 703 197 q 399 -18 564 -18 q 166 89 235 -18 q 97 403 97 196 m 512 703 q 493 715 512 703 q 400 726 475 726 q 288 703 325 726 q 233 610 251 679 q 214 404 214 542 q 232 197 214 267 q 288 104 250 128 q 400 81 325 81 q 512 104 475 81 q 567 197 549 128 q 585 404 585 267 q 567 610 585 542 q 512 703 549 679 z "},"p":{"ha":801,"x_min":118,"x_max":704,"o":"m 233 -231 l 118 -231 l 118 808 l 196 808 l 211 726 l 218 726 q 249 747 221 728 q 302 782 276 767 q 372 812 328 797 q 460 826 417 826 q 640 726 576 826 q 704 419 704 626 q 411 -18 704 -18 q 233 1 347 -18 l 233 -231 m 233 113 q 421 83 351 83 q 517 106 490 83 q 582 442 582 160 q 542 699 582 658 q 467 722 518 722 q 358 703 415 722 q 233 647 300 685 l 233 113 z "},"q":{"ha":801,"x_min":97,"x_max":676,"o":"m 676 -231 l 561 -231 l 561 28 q 361 -18 458 -18 q 97 419 97 -18 q 169 735 97 643 q 390 826 240 826 q 520 815 449 826 q 676 779 592 803 l 676 -231 m 561 703 q 385 725 481 725 q 264 696 289 725 q 218 406 218 643 q 274 110 218 168 q 347 85 299 85 q 531 118 442 85 l 561 129 l 561 703 z "},"r":{"ha":549,"x_min":140,"x_max":521,"o":"m 511 708 q 442 711 479 711 q 347 689 406 711 q 256 640 289 667 l 256 0 l 140 0 l 140 808 l 214 808 l 229 726 l 238 726 q 358 797 294 768 q 464 826 422 826 l 521 819 l 511 708 z "},"s":{"ha":683,"x_min":76,"x_max":603,"o":"m 546 696 q 339 726 436 726 q 214 706 242 726 q 186 625 186 685 q 206 552 186 572 q 238 522 226 532 q 275 502 249 513 q 314 488 301 492 q 407 461 365 472 q 551 386 500 435 q 603 228 603 338 q 534 51 603 119 q 340 -18 465 -18 q 213 -1 279 -18 q 76 49 147 15 l 106 147 q 361 82 232 82 q 450 104 424 82 q 490 213 490 139 q 406 342 490 304 q 313 374 372 357 q 231 399 253 392 q 174 424 210 406 q 122 464 139 443 q 78 607 78 519 q 342 826 78 826 q 564 793 464 826 l 546 696 z "},"t":{"ha":506,"x_min":63,"x_max":431,"o":"m 269 761 l 431 761 l 431 668 l 269 668 l 269 249 q 281 108 269 132 q 354 85 293 85 l 429 88 l 429 -6 q 351 -12 400 -12 q 203 42 251 -12 q 154 257 154 97 l 154 671 l 63 671 l 63 743 l 158 763 l 189 951 l 269 951 l 269 761 z "},"u":{"ha":833,"x_min":122,"x_max":693,"o":"m 578 808 l 693 808 l 693 0 l 615 0 l 601 78 l 594 78 q 552 55 593 78 q 485 19 511 32 q 325 -18 400 -18 q 122 271 122 -18 l 122 808 l 238 808 l 238 311 q 256 120 238 151 q 347 89 275 89 q 578 163 418 89 l 578 808 z "},"v":{"ha":658,"x_min":19,"x_max":638,"o":"m 638 808 l 397 0 l 254 0 l 19 808 l 144 808 l 322 94 l 331 94 l 513 808 l 638 808 z "},"w":{"ha":1010,"x_min":29,"x_max":975,"o":"m 975 808 l 813 0 l 642 0 l 506 636 l 497 636 l 361 0 l 192 0 l 29 808 l 146 808 l 272 67 l 279 67 l 417 701 l 588 701 l 724 67 l 732 67 l 857 808 l 975 808 z "},"x":{"ha":682,"x_min":24,"x_max":647,"o":"m 404 418 l 647 0 l 513 0 l 336 349 l 329 349 l 157 0 l 24 0 l 265 421 l 26 808 l 157 808 l 333 485 l 342 485 l 513 808 l 643 808 l 404 418 z "},"y":{"ha":665,"x_min":4,"x_max":651,"o":"m 174 -231 l 283 79 l 4 808 l 140 808 l 331 215 l 338 215 l 526 808 l 651 808 l 371 51 l 296 -231 l 174 -231 z "},"z":{"ha":654,"x_min":47,"x_max":604,"o":"m 47 0 l 47 93 l 463 711 l 463 719 l 65 713 l 65 808 l 596 808 l 596 715 l 182 97 l 182 89 l 604 96 l 604 0 l 47 0 z "},"{":{"ha":579,"x_min":78,"x_max":532,"o":"m 244 685 l 244 822 q 458 1089 244 1089 l 532 1085 l 526 994 q 443 999 471 999 q 378 965 396 999 q 360 819 360 932 l 360 683 q 344 576 360 621 q 303 511 328 532 q 231 474 258 476 l 229 474 l 229 465 q 300 428 257 463 q 343 363 326 408 q 360 253 360 317 l 360 107 q 379 -46 360 -10 q 446 -82 399 -82 l 526 -78 l 532 -169 q 463 -172 488 -172 q 244 107 244 -172 l 244 258 q 214 376 244 349 q 78 419 183 403 l 78 522 q 213 567 181 538 q 244 685 244 596 z "},"|":{"ha":389,"x_min":143,"x_max":246,"o":"m 246 -112 l 143 -112 l 143 1046 l 246 1046 l 246 -112 z "},"}":{"ha":579,"x_min":47,"x_max":501,"o":"m 335 258 l 335 107 q 117 -172 335 -172 l 47 -169 l 53 -78 q 133 -82 108 -82 q 200 -46 181 -82 q 219 107 219 -10 l 219 253 q 236 363 219 317 q 278 428 253 408 q 350 465 322 463 l 350 474 l 349 474 q 276 511 321 476 q 235 576 251 532 q 219 683 219 621 l 219 818 q 201 965 219 931 q 136 999 183 999 l 53 994 l 47 1085 q 121 1089 90 1089 q 335 821 335 1089 l 335 685 q 367 567 335 596 q 501 522 399 538 l 501 419 q 365 376 396 403 q 335 258 335 349 z "},"~":{"ha":728,"x_min":38,"x_max":681,"o":"m 528 299 q 367 350 497 299 q 194 401 238 401 q 79 343 151 401 l 38 401 q 201 504 135 504 q 375 453 253 504 q 538 403 497 403 q 644 443 578 403 l 681 386 q 528 299 615 299 z "},"¡":{"ha":372,"x_min":111,"x_max":261,"o":"m 143 546 l 233 546 l 253 -156 l 124 -156 l 143 546 m 111 685 l 111 808 l 261 808 l 261 685 l 111 685 z "},"¢":{"ha":719,"x_min":97,"x_max":663,"o":"m 424 725 q 282 689 318 725 q 236 580 254 658 q 218 399 218 501 q 307 104 218 165 q 388 82 338 82 q 498 98 439 82 q 626 146 557 114 l 663 56 q 475 -14 589 0 l 475 -164 l 374 -164 l 374 -15 q 170 101 243 -3 q 97 407 97 206 q 374 822 97 783 l 374 964 l 475 964 l 475 826 q 643 804 568 822 l 629 707 q 424 725 479 725 z "},"£":{"ha":774,"x_min":100,"x_max":699,"o":"m 100 481 l 100 571 l 222 571 q 308 891 225 799 q 532 983 390 983 q 699 961 621 983 l 686 864 q 517 882 571 882 q 394 846 425 882 q 339 571 343 783 l 589 571 l 589 481 l 339 481 l 339 104 l 678 107 l 678 0 l 100 0 l 100 103 l 222 103 l 222 481 l 100 481 z "},"¤":{"ha":901,"x_min":104,"x_max":806,"o":"m 265 756 q 456 814 356 814 q 643 758 557 814 l 724 838 l 801 761 l 722 683 q 785 488 785 599 q 726 293 785 378 l 806 214 l 728 139 l 649 215 q 455 157 558 157 q 258 219 351 157 l 179 140 l 104 218 l 183 297 q 128 487 128 379 q 186 679 128 594 l 108 758 l 185 836 l 265 756 m 616 656 q 587 684 616 656 q 457 711 558 711 q 297 656 356 711 q 239 485 239 601 q 297 315 239 369 q 463 260 356 260 q 622 313 571 260 q 674 483 674 365 q 616 656 674 601 z "},"¥":{"ha":756,"x_min":35,"x_max":717,"o":"m 65 375 l 65 467 l 272 465 l 35 965 l 165 965 l 372 467 l 381 467 l 586 965 l 717 965 l 478 465 l 686 467 l 686 375 l 65 375 m 65 203 l 65 294 l 686 294 l 686 203 l 432 203 l 432 0 l 317 0 l 317 203 l 65 203 z "},"¦":{"ha":389,"x_min":143,"x_max":246,"o":"m 246 560 l 143 560 l 143 1046 l 246 1046 l 246 560 m 246 -112 l 143 -112 l 143 374 l 246 374 l 246 -112 z "},"§":{"ha":724,"x_min":82,"x_max":653,"o":"m 653 419 q 558 236 653 325 q 610 91 610 185 q 541 -66 610 -3 q 360 -129 472 -129 q 221 -112 290 -129 q 117 -79 151 -96 l 83 -62 l 113 36 q 363 -29 243 -29 q 461 -8 433 -29 q 501 97 501 19 q 458 179 501 149 q 353 226 415 210 q 230 263 292 243 q 125 331 168 283 q 82 456 82 379 q 168 621 82 553 q 110 771 110 675 q 168 925 110 867 q 346 983 226 983 q 565 951 465 983 l 547 854 q 331 885 447 885 q 244 863 269 885 q 218 785 218 842 q 263 694 218 728 q 372 642 307 661 q 500 602 436 624 q 608 535 564 581 q 653 419 653 490 m 476 289 q 547 406 547 360 q 505 478 547 453 q 375 527 463 503 q 247 569 288 551 q 190 453 190 519 q 219 388 190 414 q 285 350 249 361 q 381 322 321 339 q 476 289 442 304 z "},"¨":{"ha":771,"x_min":188,"x_max":583,"o":"m 325 950 l 188 950 l 188 1064 l 325 1064 l 325 950 m 583 950 l 447 950 l 447 1064 l 583 1064 l 583 950 z "},"©":{"ha":1161,"x_min":100,"x_max":1061,"o":"m 711 639 q 572 650 633 650 q 493 629 510 650 q 454 442 454 585 q 497 261 454 299 q 554 243 515 243 q 697 271 631 243 l 719 281 l 744 196 q 569 144 672 144 q 405 216 465 144 q 344 439 344 288 q 415 689 344 624 q 575 746 478 746 q 718 729 672 746 l 711 639 m 579 -37 q 474 -37 579 -37 q 234 99 368 -37 q 100 446 100 235 q 238 794 100 657 q 583 932 376 932 q 926 795 790 932 q 1061 447 1061 658 q 926 99 1061 236 q 579 -37 790 -37 m 583 835 q 496 835 583 835 q 304 730 408 835 q 200 446 200 625 q 301 163 200 267 q 580 60 401 60 q 860 164 758 60 q 961 447 961 268 q 860 731 961 626 q 583 835 758 835 z "},"ª":{"ha":589,"x_min":69,"x_max":481,"o":"m 289 758 l 386 758 q 370 865 386 840 q 306 889 354 889 q 135 853 215 889 l 107 840 l 82 921 q 297 975 200 975 q 438 925 394 975 q 481 774 481 875 l 481 414 l 417 414 l 403 467 l 397 467 q 228 401 306 401 q 69 586 69 401 q 289 758 69 758 m 386 671 q 281 675 349 675 q 196 657 214 675 q 168 581 168 633 q 187 509 168 529 q 239 489 206 489 q 364 525 297 489 l 386 536 l 386 671 z "},"«":{"ha":639,"x_min":56,"x_max":585,"o":"m 338 176 l 251 122 l 56 458 l 251 794 l 338 742 l 168 464 l 168 454 l 338 176 m 585 176 l 500 122 l 304 458 l 500 794 l 585 742 l 417 464 l 417 454 l 585 176 z "},"¬":{"ha":815,"x_min":39,"x_max":754,"o":"m 754 163 l 653 163 l 653 357 l 39 357 l 39 458 l 754 458 l 754 163 z "},"­":{"ha":540,"x_min":111,"x_max":429,"o":"m 111 358 l 111 457 l 429 457 l 429 358 l 111 358 z "},"®":{"ha":1161,"x_min":100,"x_max":1061,"o":"m 579 -37 q 474 -37 579 -37 q 234 99 368 -37 q 100 446 100 235 q 238 794 100 657 q 583 932 376 932 q 926 795 790 932 q 1061 447 1061 658 q 926 99 1061 236 q 579 -37 790 -37 m 583 835 q 496 835 583 835 q 304 730 408 835 q 200 446 200 625 q 301 163 200 267 q 580 60 401 60 q 860 164 758 60 q 961 447 961 268 q 860 731 961 626 q 583 835 758 835 m 490 164 l 390 164 l 394 432 l 392 728 q 592 739 497 739 q 783 558 783 739 q 751 439 783 483 q 674 383 718 394 l 674 379 l 785 164 l 672 164 l 574 371 l 490 372 l 490 164 m 489 465 q 588 460 533 460 q 661 483 643 460 q 679 558 679 506 q 662 631 679 611 q 593 651 644 651 l 492 644 l 489 465 z "},"¯":{"ha":783,"x_min":201,"x_max":590,"o":"m 201 963 l 201 1046 l 590 1046 l 590 963 l 201 963 z "},"°":{"ha":482,"x_min":32,"x_max":450,"o":"m 93 931 q 124 957 93 931 q 242 982 154 982 q 390 931 329 982 q 450 774 450 881 q 389 617 450 668 q 241 565 328 565 q 93 617 154 565 q 32 774 32 668 q 93 931 32 881 m 351 774 q 351 831 351 774 q 241 889 351 889 q 131 774 131 889 q 241 658 131 658 q 351 774 351 658 z "},"±":{"ha":776,"x_min":72,"x_max":704,"o":"m 72 454 l 72 551 l 336 551 l 336 789 l 439 789 l 439 551 l 704 551 l 704 454 l 439 454 l 439 215 l 336 215 l 336 454 l 72 454 m 72 24 l 72 124 l 704 124 l 704 24 l 72 24 z "},"²":{"ha":514,"x_min":69,"x_max":424,"o":"m 69 914 q 146 956 94 935 q 260 976 197 976 q 368 940 322 976 q 414 833 414 903 q 325 646 414 764 l 200 496 l 200 490 l 424 496 l 424 414 l 76 414 l 76 485 q 306 772 261 683 q 325 836 325 810 q 267 893 325 893 q 106 842 190 893 l 69 914 z "},"³":{"ha":493,"x_min":58,"x_max":410,"o":"m 85 522 q 222 483 163 483 q 299 504 281 483 q 317 576 317 525 q 292 647 317 626 q 214 668 267 668 l 144 668 l 144 743 q 278 766 256 751 q 301 821 301 781 q 285 878 301 861 q 213 896 263 896 q 96 888 163 896 l 89 964 q 217 976 154 976 q 393 835 393 976 q 373 760 393 789 q 335 724 353 731 q 303 715 318 717 l 303 710 q 377 672 344 704 q 410 569 410 640 q 235 403 410 403 q 147 415 190 403 q 58 450 103 426 l 85 522 z "},"´":{"ha":831,"x_min":243,"x_max":594,"o":"m 551 1114 l 594 1021 l 271 913 l 243 982 l 551 1114 z "},"µ":{"ha":835,"x_min":122,"x_max":694,"o":"m 122 -231 l 122 808 l 239 808 l 239 313 q 257 124 239 157 q 355 89 279 89 q 578 163 431 89 l 578 808 l 694 808 l 694 0 l 617 0 l 603 78 l 594 78 q 339 -18 432 -18 q 233 7 278 -18 l 228 3 l 239 -231 l 122 -231 z "},"¶":{"ha":914,"x_min":68,"x_max":778,"o":"m 778 -214 l 661 -214 l 661 863 l 485 863 l 485 -214 l 368 -214 l 368 269 q 144 349 221 269 q 68 618 68 428 q 144 887 68 808 q 368 965 219 965 l 778 965 l 778 -214 z "},"·":{"ha":417,"x_min":135,"x_max":292,"o":"m 214 538 q 269 519 246 538 q 292 460 292 501 q 269 400 292 419 q 213 381 246 381 q 158 400 181 381 q 135 460 135 419 q 214 538 135 538 z "},"¸":{"ha":706,"x_min":276,"x_max":529,"o":"m 503 14 q 529 -114 529 -54 q 487 -211 529 -174 q 378 -249 444 -249 q 276 -236 339 -249 l 276 -150 q 374 -157 338 -157 q 425 -149 410 -157 q 440 -103 440 -140 q 421 8 440 -65 l 503 14 z "},"¹":{"ha":515,"x_min":54,"x_max":446,"o":"m 89 414 l 89 494 l 229 494 l 229 883 l 224 883 l 104 782 l 54 846 l 224 975 l 324 968 l 324 494 l 446 494 l 446 414 l 89 414 z "},"º":{"ha":496,"x_min":32,"x_max":464,"o":"m 32 688 q 32 759 32 688 q 81 902 32 829 q 248 975 131 975 q 415 902 365 975 q 464 688 464 829 q 415 474 464 547 q 248 401 365 401 q 81 474 131 401 q 32 688 32 547 m 342 851 q 328 870 342 851 q 247 890 315 890 q 154 851 179 890 q 129 688 129 811 q 155 526 129 565 q 248 486 181 486 q 342 526 315 486 q 368 688 368 565 q 342 851 368 811 z "},"»":{"ha":639,"x_min":54,"x_max":583,"o":"m 388 122 l 303 176 l 471 454 l 471 464 l 303 742 l 388 794 l 583 458 l 388 122 m 140 122 l 54 176 l 224 454 l 224 464 l 54 742 l 140 794 l 336 458 l 140 122 z "},"¼":{"ha":1224,"x_min":54,"x_max":1144,"o":"m 449 -12 l 344 -12 l 603 531 l 819 1018 l 922 1018 l 676 488 l 449 -12 m 1093 407 l 1093 196 l 1144 197 l 1144 114 l 1093 114 l 1093 0 l 1003 0 l 1006 114 l 758 114 l 758 186 l 890 564 l 975 554 l 844 194 l 844 189 l 1006 196 l 1021 407 l 1093 407 m 89 414 l 89 494 l 229 494 l 229 883 l 224 883 l 104 782 l 54 846 l 224 975 l 324 968 l 324 494 l 446 494 l 446 414 l 89 414 z "},"½":{"ha":1263,"x_min":54,"x_max":1172,"o":"m 454 -12 l 350 -12 l 608 531 l 825 1018 l 928 1018 l 682 488 l 454 -12 m 818 500 q 895 542 843 521 q 1009 563 947 563 q 1117 526 1071 563 q 1163 419 1163 489 q 1074 232 1163 350 l 949 82 l 949 76 l 1172 82 l 1172 0 l 825 0 l 825 71 q 1056 358 1010 269 q 1074 422 1074 396 q 1015 479 1074 479 q 854 428 939 479 l 818 500 m 89 414 l 89 494 l 229 494 l 229 883 l 224 883 l 104 782 l 54 846 l 224 975 l 324 968 l 324 494 l 446 494 l 446 414 l 89 414 z "},"¾":{"ha":1190,"x_min":58,"x_max":1111,"o":"m 421 -12 l 317 -12 l 575 531 l 792 1018 l 894 1018 l 649 488 l 421 -12 m 85 522 q 222 483 163 483 q 299 504 281 483 q 317 576 317 525 q 292 647 317 626 q 214 668 267 668 l 144 668 l 144 743 q 278 766 256 751 q 301 821 301 781 q 285 878 301 861 q 213 896 263 896 q 96 888 163 896 l 89 964 q 217 976 154 976 q 393 835 393 976 q 373 759 393 789 q 335 722 353 729 q 303 713 317 714 l 303 707 q 410 569 410 692 q 235 403 410 403 q 147 415 190 403 q 58 450 103 426 l 85 522 m 1060 407 l 1060 196 l 1111 197 l 1111 114 l 1060 114 l 1060 0 l 969 0 l 972 114 l 725 114 l 725 186 l 857 564 l 942 554 l 811 194 l 811 189 l 972 196 l 988 407 l 1060 407 z "},"¿":{"ha":643,"x_min":42,"x_max":600,"o":"m 600 -87 l 563 -110 q 454 -153 525 -132 q 318 -175 383 -175 q 119 -103 196 -175 q 42 79 42 -32 q 72 210 42 154 q 146 301 103 267 q 232 367 189 336 q 336 543 336 443 l 435 543 l 435 531 q 381 356 435 418 q 328 302 357 326 q 271 256 300 278 q 218 211 242 235 q 164 69 164 154 q 218 -50 164 -12 q 301 -68 244 -68 q 433 -44 357 -68 q 557 7 510 -21 q 600 -87 590 -68 m 310 685 l 310 808 l 460 808 l 460 685 l 310 685 z "},"À":{"ha":715,"x_min":7,"x_max":697,"o":"m 131 0 l 7 0 l 279 965 l 425 965 l 697 0 l 572 0 l 506 258 l 199 258 l 131 0 m 483 356 l 356 871 l 347 871 l 219 356 l 483 356 m 169 1107 l 206 1206 l 519 1093 l 492 1022 l 169 1107 z "},"Á":{"ha":715,"x_min":7,"x_max":697,"o":"m 131 0 l 7 0 l 279 965 l 425 965 l 697 0 l 572 0 l 506 258 l 199 258 l 131 0 m 483 356 l 356 871 l 347 871 l 219 356 l 483 356 m 507 1207 l 546 1106 l 219 1022 l 194 1093 l 507 1207 z "},"Â":{"ha":715,"x_min":7,"x_max":697,"o":"m 131 0 l 7 0 l 279 965 l 425 965 l 697 0 l 572 0 l 506 258 l 199 258 l 131 0 m 483 356 l 356 871 l 347 871 l 219 356 l 483 356 m 554 1071 l 515 1018 l 356 1103 l 346 1103 l 186 1018 l 147 1071 l 315 1203 l 386 1203 l 554 1071 z "},"Ã":{"ha":715,"x_min":7,"x_max":697,"o":"m 131 0 l 7 0 l 279 965 l 425 965 l 697 0 l 572 0 l 506 258 l 199 258 l 131 0 m 483 356 l 356 871 l 347 871 l 219 356 l 483 356 m 115 1050 q 210 1190 115 1190 q 365 1158 253 1190 q 486 1126 476 1126 q 522 1186 503 1126 l 596 1176 q 571 1069 596 1101 q 503 1036 546 1036 q 347 1069 461 1036 q 225 1103 233 1103 q 188 1042 210 1103 l 115 1050 z "},"Ä":{"ha":715,"x_min":7,"x_max":697,"o":"m 131 0 l 7 0 l 279 965 l 425 965 l 697 0 l 572 0 l 506 258 l 199 258 l 131 0 m 483 356 l 356 871 l 347 871 l 219 356 l 483 356 m 293 1058 l 156 1058 l 156 1172 l 293 1172 l 293 1058 m 551 1058 l 415 1058 l 415 1172 l 551 1172 l 551 1058 z "},"Å":{"ha":715,"x_min":7,"x_max":697,"o":"m 131 0 l 7 0 l 279 965 l 425 965 l 697 0 l 572 0 l 506 258 l 199 258 l 131 0 m 483 356 l 356 871 l 347 871 l 219 356 l 483 356 m 268 1205 q 285 1218 268 1205 q 351 1232 301 1232 q 435 1205 401 1232 q 468 1117 468 1178 q 435 1030 468 1057 q 351 1003 401 1003 q 268 1030 301 1003 q 235 1117 235 1057 q 268 1205 235 1178 m 388 1158 q 383 1163 388 1158 q 351 1168 378 1168 q 313 1158 325 1168 q 301 1117 301 1147 q 313 1077 301 1088 q 351 1067 325 1067 q 388 1076 378 1067 q 399 1117 399 1086 q 388 1158 399 1147 z "},"Æ":{"ha":1063,"x_min":-4,"x_max":968,"o":"m 494 0 l 494 254 l 228 254 l 119 0 l -4 0 l 411 965 l 968 965 l 968 860 l 610 864 l 604 540 l 935 540 l 935 442 l 604 442 l 610 101 l 968 104 l 968 0 l 494 0 m 494 356 l 494 871 l 469 871 l 257 356 l 494 356 z "},"Ç":{"ha":810,"x_min":100,"x_max":731,"o":"m 467 878 q 297 840 328 878 q 226 468 226 754 q 252 240 226 332 q 312 114 278 147 q 414 81 346 81 q 549 100 482 81 q 653 139 617 119 l 690 158 l 731 67 q 529 -10 653 11 q 547 -110 547 -69 q 505 -211 547 -174 q 396 -249 463 -249 q 294 -236 357 -249 l 294 -150 q 392 -157 356 -157 q 443 -149 428 -157 q 458 -101 458 -140 q 447 -18 458 -62 l 433 -18 q 100 472 100 -18 q 244 925 100 819 q 341 971 290 958 q 495 983 392 983 q 690 961 599 983 l 676 861 q 467 878 549 878 z "},"È":{"ha":714,"x_min":146,"x_max":619,"o":"m 146 0 l 146 965 l 619 965 l 619 861 l 263 865 l 256 540 l 586 540 l 586 442 l 256 442 l 263 101 l 619 104 l 619 0 l 146 0 m 200 1107 l 236 1206 l 550 1093 l 522 1022 l 200 1107 z "},"É":{"ha":714,"x_min":146,"x_max":619,"o":"m 146 0 l 146 965 l 619 965 l 619 861 l 263 865 l 256 540 l 586 540 l 586 442 l 256 442 l 263 101 l 619 104 l 619 0 l 146 0 m 561 1207 l 600 1106 l 274 1022 l 249 1093 l 561 1207 z "},"Ê":{"ha":714,"x_min":146,"x_max":619,"o":"m 146 0 l 146 965 l 619 965 l 619 861 l 263 865 l 256 540 l 586 540 l 586 442 l 256 442 l 263 101 l 619 104 l 619 0 l 146 0 m 593 1071 l 554 1018 l 394 1103 l 385 1103 l 225 1018 l 186 1071 l 354 1203 l 425 1203 l 593 1071 z "},"Ë":{"ha":714,"x_min":146,"x_max":619,"o":"m 146 0 l 146 965 l 619 965 l 619 861 l 263 865 l 256 540 l 586 540 l 586 442 l 256 442 l 263 101 l 619 104 l 619 0 l 146 0 m 328 1058 l 190 1058 l 190 1172 l 328 1172 l 328 1058 m 586 1058 l 450 1058 l 450 1172 l 586 1172 l 586 1058 z "},"Ì":{"ha":410,"x_min":10,"x_max":343,"o":"m 10 1104 l 46 1206 l 343 1096 l 315 1022 l 10 1104 m 257 539 l 264 0 l 146 -1 l 151 442 l 146 965 l 264 965 l 257 539 z "},"Í":{"ha":410,"x_min":74,"x_max":406,"o":"m 367 1207 l 406 1103 l 99 1022 l 74 1096 l 367 1207 m 257 539 l 264 0 l 146 -1 l 151 442 l 146 965 l 264 965 l 257 539 z "},"Î":{"ha":410,"x_min":11,"x_max":399,"o":"m 399 1074 l 363 1018 l 210 1103 l 200 1103 l 47 1018 l 11 1074 l 169 1203 l 240 1203 l 399 1074 m 257 539 l 264 0 l 146 -1 l 151 442 l 146 965 l 264 965 l 257 539 z "},"Ï":{"ha":410,"x_min":24,"x_max":386,"o":"m 161 1058 l 24 1058 l 24 1172 l 161 1172 l 161 1058 m 386 1058 l 250 1058 l 250 1172 l 386 1172 l 386 1058 m 257 539 l 264 0 l 146 -1 l 151 442 l 146 965 l 264 965 l 257 539 z "},"Ð":{"ha":893,"x_min":72,"x_max":793,"o":"m 72 446 l 72 543 l 164 543 l 164 967 q 440 983 346 983 q 597 957 535 983 q 695 887 658 931 q 756 778 732 843 q 793 494 793 669 q 436 -18 793 -18 q 164 0 389 -18 l 164 446 l 72 446 m 278 543 l 428 543 l 428 446 l 278 446 l 278 99 q 421 85 368 85 q 586 124 547 85 q 663 497 663 200 q 589 854 663 793 q 454 882 558 882 l 278 872 l 278 543 z "},"Ñ":{"ha":940,"x_min":146,"x_max":794,"o":"m 146 965 l 308 965 l 694 110 l 701 110 l 681 965 l 794 965 l 794 0 l 632 0 l 247 856 l 242 856 l 260 0 l 146 0 l 146 965 m 239 1050 q 333 1190 239 1190 q 488 1158 376 1190 q 608 1126 600 1126 q 646 1186 626 1126 l 719 1176 q 694 1069 719 1101 q 627 1036 669 1036 q 471 1069 585 1036 q 349 1103 357 1103 q 311 1042 333 1103 l 239 1050 z "},"Ò":{"ha":911,"x_min":100,"x_max":811,"o":"m 594 4 q 565 -7 594 4 q 456 -18 535 -18 q 317 4 376 -18 q 206 81 257 26 q 100 485 100 190 q 206 886 100 778 q 317 961 257 939 q 456 983 376 983 q 594 961 535 983 q 706 886 654 939 q 811 485 811 778 q 706 81 811 190 q 594 4 654 26 m 321 851 q 298 838 321 851 q 250 738 275 825 q 225 501 225 651 q 238 274 225 351 q 281 155 250 196 q 351 101 313 114 q 467 89 390 89 q 589 114 543 89 q 688 481 688 168 q 590 851 688 796 q 456 878 544 878 q 321 851 367 878 m 293 1107 l 329 1206 l 643 1093 l 615 1022 l 293 1107 z "},"Ó":{"ha":911,"x_min":100,"x_max":811,"o":"m 594 4 q 565 -7 594 4 q 456 -18 535 -18 q 317 4 376 -18 q 206 81 257 26 q 100 485 100 190 q 206 886 100 778 q 317 961 257 939 q 456 983 376 983 q 594 961 535 983 q 706 886 654 939 q 811 485 811 778 q 706 81 811 190 q 594 4 654 26 m 225 501 q 225 426 225 501 q 238 274 225 351 q 281 155 250 196 q 351 101 313 114 q 467 89 390 89 q 589 114 543 89 q 688 481 688 168 q 590 851 688 796 q 456 878 544 878 q 321 851 367 878 q 250 738 275 825 q 225 501 225 651 m 656 1207 l 694 1106 l 368 1022 l 343 1093 l 656 1207 z "},"Ô":{"ha":911,"x_min":100,"x_max":811,"o":"m 594 4 q 565 -7 594 4 q 456 -18 535 -18 q 317 4 376 -18 q 206 81 257 26 q 100 485 100 190 q 206 886 100 778 q 317 961 257 939 q 456 983 376 983 q 594 961 535 983 q 706 886 654 939 q 811 485 811 778 q 706 81 811 190 q 594 4 654 26 m 225 501 q 225 426 225 501 q 238 274 225 351 q 281 155 250 196 q 351 101 313 114 q 467 89 390 89 q 589 114 543 89 q 688 481 688 168 q 590 851 688 796 q 456 878 544 878 q 321 851 367 878 q 250 738 275 825 q 225 501 225 651 m 668 1071 l 629 1018 l 469 1103 l 460 1103 l 300 1018 l 261 1071 l 429 1203 l 500 1203 l 668 1071 z "},"Õ":{"ha":911,"x_min":100,"x_max":811,"o":"m 594 4 q 565 -7 594 4 q 456 -18 535 -18 q 317 4 376 -18 q 206 81 257 26 q 100 485 100 190 q 206 886 100 778 q 317 961 257 939 q 456 983 376 983 q 594 961 535 983 q 706 886 654 939 q 811 485 811 778 q 706 81 811 190 q 594 4 654 26 m 225 501 q 225 426 225 501 q 238 274 225 351 q 281 155 250 196 q 351 101 313 114 q 467 89 390 89 q 589 114 543 89 q 688 481 688 168 q 590 851 688 796 q 456 878 544 878 q 321 851 367 878 q 250 738 275 825 q 225 501 225 651 m 218 1050 q 313 1190 218 1190 q 467 1158 356 1190 q 589 1126 579 1126 q 625 1186 606 1126 l 699 1176 q 674 1069 699 1101 q 606 1036 649 1036 q 450 1069 564 1036 q 328 1103 336 1103 q 290 1042 313 1103 l 218 1050 z "},"Ö":{"ha":911,"x_min":100,"x_max":811,"o":"m 594 4 q 565 -7 594 4 q 456 -18 535 -18 q 317 4 376 -18 q 206 81 257 26 q 100 485 100 190 q 206 886 100 778 q 317 961 257 939 q 456 983 376 983 q 594 961 535 983 q 706 886 654 939 q 811 485 811 778 q 706 81 811 190 q 594 4 654 26 m 321 851 q 298 838 321 851 q 250 738 275 825 q 225 501 225 651 q 238 274 225 351 q 281 155 250 196 q 351 101 313 114 q 467 89 390 89 q 589 114 543 89 q 688 481 688 168 q 590 851 688 796 q 456 878 544 878 q 321 851 367 878 m 401 1058 l 264 1058 l 264 1172 l 401 1172 l 401 1058 m 660 1058 l 524 1058 l 524 1172 l 660 1172 l 660 1058 z "},"×":{"ha":799,"x_min":75,"x_max":724,"o":"m 147 88 l 75 161 l 328 414 l 78 664 l 147 735 l 397 483 l 651 738 l 724 664 l 471 411 l 721 161 l 651 90 l 400 340 l 147 88 z "},"Ø":{"ha":911,"x_min":100,"x_max":811,"o":"m 706 81 q 594 4 654 26 q 450 -18 535 -18 q 297 11 365 -18 l 268 -54 l 157 -54 l 217 68 q 100 485 100 185 q 206 886 100 778 q 317 961 257 939 q 466 983 376 983 q 626 947 556 983 l 656 1013 l 765 1013 l 706 886 q 811 485 811 767 q 706 81 811 190 m 321 851 q 298 838 321 851 q 250 738 275 825 q 225 456 225 651 q 268 175 225 260 l 425 499 l 585 854 q 453 878 539 878 q 321 851 367 878 m 340 106 q 463 89 383 89 q 589 114 543 89 q 688 481 688 168 q 651 774 688 688 l 500 456 l 340 106 z "},"Ù":{"ha":918,"x_min":146,"x_max":772,"o":"m 656 965 l 772 965 l 772 432 q 696 80 772 178 q 459 -18 619 -18 q 222 78 299 -18 q 146 419 146 175 l 146 965 l 263 965 l 263 457 q 279 212 263 288 q 333 112 296 136 q 441 88 371 88 q 542 95 511 88 q 599 123 574 103 q 633 186 624 143 q 656 457 656 275 l 656 965 m 236 1107 l 272 1206 l 586 1093 l 558 1022 l 236 1107 z "},"Ú":{"ha":918,"x_min":146,"x_max":772,"o":"m 772 965 l 772 432 q 696 80 772 178 q 459 -18 619 -18 q 222 78 299 -18 q 146 419 146 175 l 146 965 l 263 965 l 263 457 q 279 212 263 288 q 333 112 296 136 q 441 88 371 88 q 542 94 511 88 q 633 186 617 114 q 656 457 656 275 l 656 965 l 772 965 m 650 1207 l 689 1106 l 363 1022 l 338 1093 l 650 1207 z "},"Û":{"ha":918,"x_min":146,"x_max":772,"o":"m 772 965 l 772 432 q 696 80 772 178 q 459 -18 619 -18 q 222 78 299 -18 q 146 419 146 175 l 146 965 l 263 965 l 263 457 q 279 212 263 288 q 333 112 296 136 q 441 88 371 88 q 542 94 511 88 q 633 186 617 114 q 656 457 656 275 l 656 965 l 772 965 m 664 1071 l 625 1018 l 465 1103 l 456 1103 l 296 1018 l 257 1071 l 425 1203 l 496 1203 l 664 1071 z "},"Ü":{"ha":918,"x_min":146,"x_max":772,"o":"m 656 965 l 772 965 l 772 432 q 696 80 772 178 q 459 -18 619 -18 q 222 78 299 -18 q 146 419 146 175 l 146 965 l 263 965 l 263 457 q 279 212 263 288 q 333 112 296 136 q 441 88 371 88 q 542 95 511 88 q 599 123 574 103 q 633 186 624 143 q 656 457 656 275 l 656 965 m 399 1054 l 261 1054 l 261 1168 l 399 1168 l 399 1054 m 657 1054 l 521 1054 l 521 1168 l 657 1168 l 657 1054 z "},"Ý":{"ha":710,"x_min":7,"x_max":689,"o":"m 288 0 l 290 360 l 7 965 l 138 965 l 344 457 l 350 457 l 558 965 l 689 965 l 404 358 l 407 0 l 288 0 m 544 1207 l 583 1106 l 257 1022 l 232 1093 l 544 1207 z "},"Þ":{"ha":826,"x_min":143,"x_max":739,"o":"m 468 849 q 669 767 599 849 q 739 526 739 686 q 642 256 739 332 q 435 190 558 190 l 258 199 l 260 0 l 143 0 l 147 451 l 143 965 l 260 965 l 258 839 q 468 849 404 849 m 257 306 q 452 289 360 289 q 572 315 544 289 q 615 532 615 357 q 565 738 615 707 q 435 760 528 760 q 257 744 343 760 l 257 306 z "},"ß":{"ha":854,"x_min":146,"x_max":749,"o":"m 263 682 l 263 0 l 146 0 l 146 681 q 223 907 146 831 q 417 983 300 983 q 613 917 533 983 q 692 736 692 851 q 675 642 692 685 q 635 575 658 599 q 557 524 586 524 q 678 468 621 515 q 729 390 710 442 q 749 271 749 339 q 676 60 749 139 q 472 -18 604 -18 q 357 -4 422 -18 l 371 83 q 465 74 415 74 q 588 117 550 74 q 626 265 626 160 q 584 420 626 369 q 432 471 542 471 l 396 471 l 396 553 q 531 603 489 563 q 572 729 572 643 q 419 896 572 896 q 297 845 332 896 q 263 682 263 794 z "},"à":{"ha":789,"x_min":75,"x_max":657,"o":"m 394 497 l 542 497 q 517 693 542 660 q 428 726 493 726 q 290 709 363 726 q 133 657 217 692 l 93 747 q 141 769 111 756 q 253 804 171 782 q 403 826 335 826 q 657 532 657 826 l 657 0 l 582 0 l 565 85 l 557 85 q 518 56 543 74 q 424 10 493 39 q 293 -18 354 -18 q 135 49 194 -18 q 75 248 75 117 q 157 438 75 379 q 394 497 239 497 m 542 390 q 373 400 482 400 q 233 374 264 400 q 196 251 196 344 q 223 121 196 157 q 305 85 250 85 q 417 103 360 85 q 542 160 474 122 l 542 390 m 210 1021 l 251 1114 l 560 982 l 532 913 l 210 1021 z "},"á":{"ha":789,"x_min":75,"x_max":657,"o":"m 542 497 q 517 693 542 660 q 426 726 493 726 q 133 657 283 726 l 93 747 l 136 767 q 257 806 179 786 q 403 826 335 826 q 657 532 657 826 l 657 0 l 582 0 l 565 85 l 557 85 l 522 58 q 420 8 486 33 q 293 -18 354 -18 q 135 49 194 -18 q 75 248 75 117 q 157 438 75 379 q 394 497 239 497 l 542 497 m 313 85 q 542 160 418 85 l 542 390 q 393 400 461 400 q 233 374 264 400 q 196 251 196 344 q 223 121 196 157 q 313 85 250 85 m 515 1114 l 558 1021 l 235 913 l 207 982 l 515 1114 z "},"â":{"ha":789,"x_min":75,"x_max":657,"o":"m 542 497 q 517 693 542 660 q 426 726 493 726 q 133 657 283 726 l 93 747 l 136 767 q 257 806 179 786 q 403 826 335 826 q 657 532 657 826 l 657 0 l 582 0 l 565 85 l 557 85 l 522 58 q 420 8 486 33 q 293 -18 354 -18 q 135 49 194 -18 q 75 248 75 117 q 157 438 75 379 q 394 497 239 497 l 542 497 m 313 85 q 542 160 418 85 l 542 390 q 393 400 461 400 q 233 374 264 400 q 196 251 196 344 q 223 121 196 157 q 313 85 250 85 m 581 963 l 540 915 l 382 1014 l 372 1014 l 214 915 l 174 963 l 342 1114 l 413 1114 l 581 963 z "},"ã":{"ha":789,"x_min":75,"x_max":657,"o":"m 542 497 q 517 693 542 660 q 426 726 493 726 q 133 657 283 726 l 93 747 l 136 767 q 257 806 179 786 q 403 826 335 826 q 657 532 657 826 l 657 0 l 582 0 l 565 85 l 557 85 l 522 58 q 420 8 486 33 q 293 -18 354 -18 q 135 49 194 -18 q 75 248 75 117 q 157 438 75 379 q 394 497 239 497 l 542 497 m 313 85 q 542 160 418 85 l 542 390 q 393 400 461 400 q 233 374 264 400 q 196 251 196 344 q 223 121 196 157 q 313 85 250 85 m 118 938 q 213 1078 118 1078 q 367 1044 256 1078 q 489 1011 479 1011 q 525 1074 506 1011 l 599 1064 q 574 956 599 989 q 506 924 549 924 q 350 958 464 924 q 228 993 236 993 q 190 929 213 993 l 118 938 z "},"ä":{"ha":789,"x_min":75,"x_max":657,"o":"m 394 497 l 542 497 q 517 693 542 660 q 428 726 493 726 q 290 709 363 726 q 133 657 217 692 l 93 747 q 141 769 111 756 q 253 804 171 782 q 403 826 335 826 q 657 532 657 826 l 657 0 l 582 0 l 565 85 l 557 85 q 518 56 543 74 q 424 10 493 39 q 293 -18 354 -18 q 135 49 194 -18 q 75 248 75 117 q 157 438 75 379 q 394 497 239 497 m 542 390 q 373 400 482 400 q 233 374 264 400 q 196 251 196 344 q 223 121 196 157 q 305 85 250 85 q 417 103 360 85 q 542 160 474 122 l 542 390 m 313 950 l 175 950 l 175 1064 l 313 1064 l 313 950 m 571 950 l 435 950 l 435 1064 l 571 1064 l 571 950 z "},"å":{"ha":789,"x_min":75,"x_max":657,"o":"m 394 497 l 542 497 q 517 693 542 660 q 428 726 493 726 q 290 709 363 726 q 133 657 217 692 l 93 747 q 141 769 111 756 q 253 804 171 782 q 403 826 335 826 q 657 532 657 826 l 657 0 l 582 0 l 565 85 l 557 85 q 518 56 543 74 q 424 10 493 39 q 293 -18 354 -18 q 135 49 194 -18 q 75 248 75 117 q 157 438 75 379 q 394 497 239 497 m 542 390 q 373 400 482 400 q 233 374 264 400 q 196 251 196 344 q 223 121 196 157 q 305 85 250 85 q 417 103 360 85 q 542 160 474 122 l 542 390 m 294 1103 q 311 1117 294 1103 q 378 1131 328 1131 q 461 1103 428 1131 q 494 1015 494 1076 q 461 926 494 953 q 378 899 428 899 q 294 926 328 899 q 261 1015 261 953 q 294 1103 261 1076 m 415 1056 q 409 1061 415 1056 q 378 1067 404 1067 q 340 1056 351 1067 q 328 1015 328 1046 q 340 973 328 983 q 378 963 351 963 q 415 973 404 963 q 425 1015 425 983 q 415 1056 425 1046 z "},"æ":{"ha":1226,"x_min":75,"x_max":1136,"o":"m 854 -18 q 607 94 681 -18 l 600 94 q 552 63 582 82 q 443 13 522 44 q 299 -18 364 -18 q 135 46 194 -18 q 75 238 75 110 q 394 475 75 475 l 542 475 q 517 690 542 654 q 428 726 493 726 q 290 709 363 726 q 133 657 217 692 l 93 747 q 388 826 258 826 q 615 721 556 826 l 621 721 q 847 826 699 826 q 1066 740 996 826 q 1136 457 1136 654 l 1136 375 l 660 375 l 660 325 q 718 117 665 172 q 842 83 756 83 q 1047 122 932 83 l 1085 136 l 1114 42 q 854 -18 1000 -18 m 542 368 q 374 378 485 378 q 233 351 264 378 q 196 238 196 326 q 224 117 196 149 q 306 85 251 85 q 507 136 403 85 l 542 154 l 542 368 m 986 689 q 853 726 961 726 q 702 672 746 726 q 658 467 658 618 l 1018 474 q 986 689 1018 636 z "},"ç":{"ha":719,"x_min":97,"x_max":663,"o":"m 424 725 q 282 689 318 725 q 236 580 254 658 q 218 399 218 501 q 307 104 218 165 q 388 82 338 82 q 498 98 439 82 q 626 146 557 114 l 663 56 q 510 -7 604 13 q 529 -118 529 -62 q 487 -211 529 -174 q 378 -249 444 -249 q 276 -236 339 -249 l 276 -150 q 374 -157 338 -157 q 425 -149 410 -157 q 440 -101 440 -140 q 429 -18 440 -62 l 417 -18 q 182 85 267 -18 q 97 413 97 189 q 190 732 97 638 q 446 826 283 826 q 643 804 551 826 l 629 707 q 424 725 479 725 z "},"è":{"ha":790,"x_min":97,"x_max":700,"o":"m 419 -18 q 97 404 97 -18 q 417 826 97 826 q 629 738 558 826 q 700 446 700 650 l 700 360 l 219 360 q 279 117 219 172 q 382 83 317 83 q 611 122 499 83 l 649 136 l 678 42 q 419 -18 561 -18 m 550 685 q 414 726 522 726 q 263 669 306 726 q 219 451 219 613 l 582 458 q 550 685 582 632 m 218 1021 l 260 1114 l 568 982 l 540 913 l 218 1021 z "},"é":{"ha":790,"x_min":97,"x_max":700,"o":"m 419 -18 q 97 404 97 -18 q 417 826 97 826 q 629 738 558 826 q 700 446 700 650 l 700 360 l 219 360 q 279 117 219 172 q 394 83 317 83 q 649 136 513 83 l 678 42 q 547 -3 611 11 q 419 -18 482 -18 m 219 451 l 582 458 q 550 685 582 632 q 414 726 522 726 q 263 669 306 726 q 219 451 219 613 m 608 1114 l 651 1021 l 328 913 l 300 982 l 608 1114 z "},"ê":{"ha":790,"x_min":97,"x_max":700,"o":"m 419 -18 q 97 404 97 -18 q 417 826 97 826 q 629 738 558 826 q 700 446 700 650 l 700 360 l 219 360 q 279 117 219 172 q 394 83 317 83 q 649 136 513 83 l 678 42 q 547 -3 611 11 q 419 -18 482 -18 m 219 451 l 582 458 q 550 685 582 632 q 414 726 522 726 q 263 669 306 726 q 219 451 219 613 m 599 963 l 558 915 l 400 1014 l 390 1014 l 232 915 l 192 963 l 360 1114 l 431 1114 l 599 963 z "},"ë":{"ha":790,"x_min":97,"x_max":700,"o":"m 419 -18 q 97 404 97 -18 q 417 826 97 826 q 629 738 558 826 q 700 446 700 650 l 700 360 l 219 360 q 279 117 219 172 q 382 83 317 83 q 611 122 499 83 l 649 136 l 678 42 q 419 -18 561 -18 m 550 685 q 414 726 522 726 q 263 669 306 726 q 219 451 219 613 l 582 458 q 550 685 582 632 m 339 950 l 201 950 l 201 1064 l 339 1064 l 339 950 m 597 950 l 461 950 l 461 1064 l 597 1064 l 597 950 z "},"ì":{"ha":410,"x_min":-43,"x_max":299,"o":"m -43 1019 l -4 1114 l 299 982 l 271 913 l -43 1019 m 263 0 l 147 0 l 147 808 l 263 808 l 263 0 z "},"í":{"ha":410,"x_min":78,"x_max":419,"o":"m 382 1114 l 419 1019 l 106 913 l 78 982 l 382 1114 m 147 0 l 147 808 l 263 808 l 263 0 l 147 0 z "},"î":{"ha":410,"x_min":10,"x_max":400,"o":"m 400 963 l 356 917 l 211 1014 l 200 1014 l 56 917 l 10 963 l 168 1114 l 242 1114 l 400 963 m 147 0 l 147 808 l 263 808 l 263 0 l 147 0 z "},"ï":{"ha":410,"x_min":10,"x_max":400,"o":"m 147 950 l 10 950 l 10 1064 l 147 1064 l 147 950 m 400 950 l 264 950 l 264 1064 l 400 1064 l 400 950 m 263 0 l 147 0 l 147 808 l 263 808 l 263 0 z "},"ð":{"ha":800,"x_min":97,"x_max":703,"o":"m 703 397 q 633 88 703 193 q 399 -18 564 -18 q 166 84 235 -18 q 97 383 97 186 q 397 722 97 722 q 576 665 503 722 l 583 669 q 457 857 551 771 l 325 772 l 314 869 l 389 914 q 292 981 350 942 l 343 1064 q 479 978 419 1024 l 629 1076 l 639 978 l 543 919 q 703 397 703 757 m 585 390 q 585 458 585 390 q 544 574 585 526 q 399 622 504 622 q 254 574 294 622 q 214 390 214 526 q 233 189 214 253 q 288 103 251 125 q 400 81 325 81 q 512 103 475 81 q 567 189 549 125 q 585 390 585 253 z "},"ñ":{"ha":835,"x_min":140,"x_max":713,"o":"m 256 0 l 140 0 l 140 808 l 218 808 l 231 729 l 238 729 q 526 826 404 826 q 619 806 582 826 q 713 538 713 751 l 713 0 l 596 0 l 596 497 q 576 686 596 656 q 500 717 556 717 q 256 643 394 717 l 256 0 m 181 938 q 275 1078 181 1078 q 430 1044 318 1078 q 550 1011 542 1011 q 588 1074 568 1011 l 661 1064 q 636 956 661 989 q 569 924 611 924 q 413 958 526 924 q 290 993 299 993 q 253 929 275 993 l 181 938 z "},"ò":{"ha":800,"x_min":97,"x_max":703,"o":"m 97 403 q 97 507 97 403 q 166 719 97 611 q 399 826 235 826 q 633 719 564 826 q 703 404 703 611 q 633 90 703 197 q 399 -18 564 -18 q 166 89 235 -18 q 97 403 97 196 m 512 703 q 493 715 512 703 q 400 726 475 726 q 288 703 325 726 q 233 610 251 679 q 214 404 214 542 q 232 197 214 267 q 288 104 250 128 q 400 81 325 81 q 512 104 475 81 q 567 197 549 128 q 585 404 585 267 q 567 610 585 542 q 512 703 549 679 m 210 1021 l 251 1114 l 560 982 l 532 913 l 210 1021 z "},"ó":{"ha":800,"x_min":97,"x_max":703,"o":"m 399 826 q 482 826 399 826 q 633 719 564 826 q 703 404 703 611 q 633 90 703 197 q 399 -18 564 -18 q 166 89 235 -18 q 97 403 97 196 q 166 719 97 611 q 399 826 235 826 m 512 703 q 493 715 512 703 q 400 726 475 726 q 288 703 325 726 q 233 610 251 679 q 214 404 214 542 q 232 197 214 267 q 288 104 250 128 q 400 81 325 81 q 512 104 475 81 q 567 197 549 128 q 585 404 585 267 q 567 610 585 542 q 512 703 549 679 m 589 1114 l 632 1021 l 308 913 l 281 982 l 589 1114 z "},"ô":{"ha":800,"x_min":97,"x_max":703,"o":"m 399 826 q 482 826 399 826 q 633 719 564 826 q 703 404 703 611 q 633 90 703 197 q 399 -18 564 -18 q 166 89 235 -18 q 97 403 97 196 q 166 719 97 611 q 399 826 235 826 m 512 703 q 493 715 512 703 q 400 726 475 726 q 288 703 325 726 q 233 610 251 679 q 214 404 214 542 q 232 197 214 267 q 288 104 250 128 q 400 81 325 81 q 512 104 475 81 q 567 197 549 128 q 585 404 585 267 q 567 610 585 542 q 512 703 549 679 m 603 963 l 563 915 l 404 1014 l 394 1014 l 236 915 l 196 963 l 364 1114 l 435 1114 l 603 963 z "},"õ":{"ha":800,"x_min":97,"x_max":703,"o":"m 399 826 q 482 826 399 826 q 633 719 564 826 q 703 404 703 611 q 633 90 703 197 q 399 -18 564 -18 q 166 89 235 -18 q 97 403 97 196 q 166 719 97 611 q 399 826 235 826 m 512 703 q 493 715 512 703 q 400 726 475 726 q 288 703 325 726 q 233 610 251 679 q 214 404 214 542 q 232 197 214 267 q 288 104 250 128 q 400 81 325 81 q 512 104 475 81 q 567 197 549 128 q 585 404 585 267 q 567 610 585 542 q 512 703 549 679 m 160 938 q 254 1078 160 1078 q 409 1044 297 1078 q 531 1011 521 1011 q 567 1074 547 1011 l 640 1064 q 615 956 640 989 q 548 924 590 924 q 392 958 506 924 q 269 993 278 993 q 232 929 254 993 l 160 938 z "},"ö":{"ha":800,"x_min":97,"x_max":703,"o":"m 97 403 q 97 507 97 403 q 166 719 97 611 q 399 826 235 826 q 633 719 564 826 q 703 404 703 611 q 633 90 703 197 q 399 -18 564 -18 q 166 89 235 -18 q 97 403 97 196 m 512 703 q 493 715 512 703 q 400 726 475 726 q 288 703 325 726 q 233 610 251 679 q 214 404 214 542 q 232 197 214 267 q 288 104 250 128 q 400 81 325 81 q 512 104 475 81 q 567 197 549 128 q 585 404 585 267 q 567 610 585 542 q 512 703 549 679 m 340 950 l 203 950 l 203 1064 l 340 1064 l 340 950 m 599 950 l 463 950 l 463 1064 l 599 1064 l 599 950 z "},"÷":{"ha":858,"x_min":72,"x_max":788,"o":"m 356 618 l 356 743 l 506 743 l 506 618 l 356 618 m 356 69 l 356 194 l 506 194 l 506 69 l 356 69 m 72 357 l 72 456 l 788 456 l 788 357 l 72 357 z "},"ø":{"ha":804,"x_min":99,"x_max":706,"o":"m 172 83 q 99 398 99 185 q 168 719 99 611 q 403 826 238 826 q 514 810 467 826 l 542 871 l 647 871 l 596 764 q 706 404 706 665 q 636 90 706 197 q 403 -18 567 -18 q 244 18 308 -18 l 213 -53 l 107 -53 l 172 83 m 286 107 q 399 81 321 81 q 515 104 478 81 q 569 197 551 128 q 588 433 588 267 q 549 667 588 600 l 424 404 l 286 107 m 472 719 q 388 726 447 726 q 290 703 328 726 q 235 610 253 679 q 217 406 217 542 q 232 204 217 269 l 349 447 l 472 719 z "},"ù":{"ha":833,"x_min":122,"x_max":693,"o":"m 578 808 l 693 808 l 693 0 l 615 0 l 601 78 l 594 78 q 552 55 593 78 q 485 19 511 32 q 325 -18 400 -18 q 122 271 122 -18 l 122 808 l 238 808 l 238 311 q 256 120 238 151 q 347 89 275 89 q 578 163 418 89 l 578 808 m 199 1021 l 240 1114 l 549 982 l 521 913 l 199 1021 z "},"ú":{"ha":833,"x_min":122,"x_max":693,"o":"m 578 808 l 693 808 l 693 0 l 615 0 l 601 78 l 594 78 q 553 56 593 78 q 325 -18 422 -18 q 122 271 122 -18 l 122 808 l 238 808 l 238 311 q 256 120 238 151 q 347 89 275 89 q 578 163 418 89 l 578 808 m 624 1114 l 667 1021 l 343 913 l 315 982 l 624 1114 z "},"û":{"ha":833,"x_min":122,"x_max":693,"o":"m 578 808 l 693 808 l 693 0 l 615 0 l 601 78 l 594 78 q 553 56 593 78 q 325 -18 422 -18 q 122 271 122 -18 l 122 808 l 238 808 l 238 311 q 256 120 238 151 q 347 89 275 89 q 578 163 418 89 l 578 808 m 615 963 l 575 915 l 417 1014 l 407 1014 l 249 915 l 208 963 l 376 1114 l 447 1114 l 615 963 z "},"ü":{"ha":833,"x_min":122,"x_max":693,"o":"m 578 808 l 693 808 l 693 0 l 615 0 l 601 78 l 594 78 q 552 55 593 78 q 485 19 511 32 q 325 -18 400 -18 q 122 271 122 -18 l 122 808 l 238 808 l 238 311 q 256 120 238 151 q 347 89 275 89 q 578 163 418 89 l 578 808 m 346 950 l 208 950 l 208 1064 l 346 1064 l 346 950 m 604 950 l 468 950 l 468 1064 l 604 1064 l 604 950 z "},"ý":{"ha":665,"x_min":4,"x_max":651,"o":"m 174 -231 l 283 79 l 4 808 l 140 808 l 331 215 l 338 215 l 526 808 l 651 808 l 371 51 l 296 -231 l 174 -231 m 526 1114 l 569 1021 l 246 913 l 218 982 l 526 1114 z "},"þ":{"ha":821,"x_min":146,"x_max":724,"o":"m 261 -231 l 146 -231 l 146 1046 l 261 1046 l 261 796 q 474 826 389 826 q 661 726 599 826 q 724 407 724 625 q 439 -18 724 -18 q 261 4 379 -18 l 261 -231 m 261 107 q 433 83 353 83 q 539 106 513 83 q 583 204 563 128 q 603 414 603 281 q 558 701 603 665 q 474 724 529 724 q 261 688 375 724 l 261 107 z "},"ÿ":{"ha":665,"x_min":4,"x_max":651,"o":"m 174 -231 l 283 79 l 4 808 l 140 808 l 331 215 l 338 215 l 526 808 l 651 808 l 371 51 l 296 -231 l 174 -231 m 272 950 l 135 950 l 135 1064 l 272 1064 l 272 950 m 531 950 l 394 950 l 394 1064 l 531 1064 l 531 950 z "},"ħ":{"ha":828,"x_min":22,"x_max":706,"o":"m 561 689 q 463 718 540 718 q 249 660 385 718 l 249 0 l 133 0 l 133 903 l 22 903 l 22 993 l 133 993 l 133 1046 l 249 1046 l 249 993 l 486 993 l 486 903 l 249 903 l 249 758 q 493 826 406 826 q 659 756 613 826 q 706 538 706 686 l 706 0 l 589 0 l 589 497 q 561 689 589 649 z "},"Ĩ":{"ha":410,"x_min":0,"x_max":411,"o":"m 0 1050 q 94 1190 0 1190 q 215 1159 138 1190 q 300 1128 292 1128 q 338 1186 318 1128 l 411 1176 q 386 1069 411 1101 q 319 1036 361 1036 q 197 1068 276 1036 q 110 1100 118 1100 q 72 1042 94 1100 l 0 1050 m 257 539 l 264 0 l 146 -1 l 151 442 l 146 965 l 264 965 l 257 539 z "},"ĩ":{"ha":410,"x_min":0,"x_max":410,"o":"m 0 939 q 81 1078 0 1078 q 207 1044 117 1078 q 307 1011 297 1011 q 338 1074 318 1011 l 410 1064 q 389 957 410 989 q 331 925 368 925 q 203 960 294 925 q 104 994 113 994 q 72 931 92 994 l 0 939 m 147 0 l 147 808 l 263 808 l 263 0 l 147 0 z "},"ı":{"ha":410,"x_min":147,"x_max":263,"o":"m 263 0 l 147 0 l 147 808 l 263 808 l 263 0 z "},"Ĳ":{"ha":804,"x_min":146,"x_max":671,"o":"m 257 539 l 264 0 l 146 0 l 151 442 l 146 965 l 264 965 l 257 539 m 671 328 q 443 -18 671 -18 q 356 -8 415 -18 l 368 92 q 466 83 435 83 q 514 96 497 83 q 554 310 554 125 l 554 965 l 671 965 l 671 328 z "},"ĳ":{"ha":790,"x_min":135,"x_max":656,"o":"m 263 0 l 147 0 l 147 808 l 263 808 l 263 0 m 276 928 l 135 928 l 135 1046 l 276 1046 l 276 928 m 643 808 l 643 76 q 424 -247 643 -247 l 340 -240 l 353 -137 q 435 -143 392 -143 q 494 -131 478 -143 q 528 72 528 -108 l 528 808 l 643 808 m 656 928 l 514 928 l 514 1046 l 656 1046 l 656 928 z "},"Ĵ":{"ha":439,"x_min":-10,"x_max":442,"o":"m 442 1074 l 406 1018 l 253 1103 l 243 1103 l 90 1018 l 54 1074 l 213 1203 l 283 1203 l 442 1074 m 306 328 q 78 -18 306 -18 q -10 -8 50 -18 l 3 92 q 101 83 69 83 q 150 96 132 83 q 189 310 189 125 l 189 965 l 306 965 l 306 328 z "},"ĵ":{"ha":467,"x_min":-6,"x_max":435,"o":"m 297 76 q 78 -247 297 -247 q -6 -240 42 -247 l 7 -137 l 92 -143 q 149 -131 132 -143 q 182 72 182 -108 l 182 808 l 297 808 l 297 76 m 435 963 l 390 917 l 246 1014 l 235 1014 l 90 917 l 44 963 l 203 1114 l 276 1114 l 435 963 z "},"ķ":{"ha":725,"x_min":125,"x_max":738,"o":"m 324 -76 l 440 -76 q 397 -248 438 -196 q 289 -324 356 -300 l 258 -267 q 313 -210 303 -244 q 324 -76 324 -175 m 240 1046 l 240 0 l 125 0 l 132 446 l 125 1046 l 240 1046 m 242 436 l 564 808 l 713 808 l 369 443 l 369 436 l 738 0 l 588 0 l 242 436 z "},"ĸ":{"ha":740,"x_min":140,"x_max":753,"o":"m 257 436 l 579 808 l 728 808 l 385 443 l 385 436 l 753 0 l 603 0 l 257 436 m 140 808 l 219 808 l 256 703 l 256 0 l 140 0 l 140 808 z "},"Ŀ":{"ha":619,"x_min":146,"x_max":604,"o":"m 146 0 l 146 965 l 263 965 l 256 104 l 604 107 l 604 0 l 146 0 m 382 463 l 382 583 l 518 583 l 518 463 l 382 463 z "},"ŀ":{"ha":510,"x_min":125,"x_max":475,"o":"m 339 501 l 339 621 l 475 621 l 475 501 l 339 501 m 239 0 l 125 0 l 125 1046 l 239 1046 l 239 0 z "},"Ł":{"ha":608,"x_min":57,"x_max":601,"o":"m 142 965 l 258 965 l 254 540 l 481 697 l 481 582 l 254 425 l 251 104 l 601 107 l 601 0 l 142 0 l 142 349 l 57 290 l 57 404 l 142 463 l 142 965 z "},"ł":{"ha":397,"x_min":40,"x_max":357,"o":"m 263 0 l 147 0 l 147 444 l 40 375 l 40 485 l 147 556 l 147 1046 l 263 1046 l 263 633 l 357 697 l 357 583 l 263 521 l 263 0 z "},"Ń":{"ha":940,"x_min":146,"x_max":794,"o":"m 678 1207 l 717 1106 l 390 1022 l 365 1093 l 678 1207 m 146 965 l 308 965 l 694 110 l 701 110 l 681 965 l 794 965 l 794 0 l 632 0 l 247 856 l 242 856 l 260 0 l 146 0 l 146 965 z "},"ń":{"ha":835,"x_min":140,"x_max":713,"o":"m 256 0 l 140 0 l 140 808 l 218 808 l 231 729 l 238 729 q 526 826 404 826 q 619 806 582 826 q 713 538 713 751 l 713 0 l 596 0 l 596 497 q 576 686 596 656 q 500 717 556 717 q 256 643 394 717 l 256 0 m 617 1114 l 660 1021 l 336 913 l 308 982 l 617 1114 z "},"Œ":{"ha":1263,"x_min":100,"x_max":1168,"o":"m 693 892 l 693 965 l 1168 965 l 1168 860 l 810 864 l 803 540 l 1135 540 l 1135 442 l 803 442 l 810 101 l 1168 104 l 1168 0 l 693 0 l 693 75 l 688 75 q 456 -18 607 -18 q 317 4 376 -18 q 206 81 257 26 q 100 485 100 190 q 206 886 100 778 q 317 961 257 939 q 456 983 376 983 q 688 892 604 983 l 693 892 m 321 851 q 298 838 321 851 q 250 738 275 825 q 225 501 225 651 q 238 274 225 351 q 281 155 250 196 q 351 101 313 114 q 467 89 390 89 q 589 114 543 89 q 688 481 688 168 q 590 851 688 796 q 456 878 544 878 q 321 851 367 878 z "},"œ":{"ha":1272,"x_min":97,"x_max":1182,"o":"m 97 403 q 97 507 97 403 q 166 719 97 611 q 403 826 235 826 q 643 697 571 826 l 649 697 q 901 826 725 826 q 1111 738 1040 826 q 1182 446 1182 649 l 1182 360 l 704 360 l 704 313 q 764 117 708 164 q 886 83 801 83 q 993 97 932 83 q 1131 136 1054 110 l 1160 42 q 900 -18 1044 -18 q 653 111 731 -18 l 647 111 q 406 -18 576 -18 q 166 89 235 -18 q 97 403 97 196 m 512 703 q 493 715 512 703 q 400 726 475 726 q 288 703 325 726 q 233 610 251 679 q 214 404 214 542 q 232 197 214 267 q 288 104 250 128 q 400 81 325 81 q 512 104 475 81 q 567 197 549 128 q 585 404 585 267 q 567 610 585 542 q 512 703 549 679 m 1032 685 q 900 726 1008 726 q 748 669 792 726 q 704 451 704 613 l 1064 458 q 1032 685 1064 632 z "},"Ŕ":{"ha":882,"x_min":146,"x_max":776,"o":"m 264 0 l 146 0 l 153 457 l 149 965 q 456 983 283 983 q 764 683 764 983 q 558 397 764 446 l 558 392 l 776 0 l 638 0 l 439 383 l 264 390 l 264 0 m 263 494 q 481 481 393 481 q 604 527 568 481 q 640 685 640 574 q 586 875 640 843 q 467 894 554 894 q 265 879 381 894 l 263 494 m 599 1218 l 642 1125 l 318 1017 l 290 1086 l 599 1218 z "},"Ŗ":{"ha":882,"x_min":146,"x_max":776,"o":"m 388 -76 l 503 -76 q 451 -258 500 -204 q 353 -324 413 -301 l 322 -267 q 377 -210 367 -244 q 388 -76 388 -175 m 264 0 l 146 0 l 153 457 l 149 965 q 456 983 283 983 q 764 683 764 983 q 558 397 764 446 l 558 392 l 776 0 l 638 0 l 439 383 l 264 390 l 264 0 m 263 494 q 481 481 393 481 q 604 527 568 481 q 640 685 640 574 q 586 875 640 843 q 467 894 554 894 q 265 879 381 894 l 263 494 z "},"ŗ":{"ha":549,"x_min":75,"x_max":521,"o":"m 511 708 q 442 711 479 711 q 347 689 406 711 q 256 640 289 667 l 256 0 l 140 0 l 140 808 l 214 808 l 229 726 l 238 726 q 358 797 294 768 q 464 826 422 826 l 521 819 l 511 708 m 140 -76 l 256 -76 q 204 -258 253 -204 q 106 -324 165 -301 l 75 -267 q 130 -210 119 -244 q 140 -76 140 -175 z "},"Ř":{"ha":882,"x_min":146,"x_max":776,"o":"m 264 0 l 146 0 l 153 457 l 149 965 q 456 983 283 983 q 764 683 764 983 q 558 397 764 446 l 558 392 l 776 0 l 638 0 l 439 383 l 264 390 l 264 0 m 263 494 q 481 481 393 481 q 604 527 568 481 q 640 685 640 574 q 586 875 640 843 q 467 894 554 894 q 265 879 381 894 l 263 494 m 607 1221 l 646 1168 l 478 1036 l 407 1036 l 239 1168 l 278 1221 l 438 1136 l 447 1136 l 607 1221 z "},"ř":{"ha":549,"x_min":113,"x_max":521,"o":"m 511 708 q 442 711 479 711 q 347 689 406 711 q 256 640 289 667 l 256 0 l 140 0 l 140 808 l 214 808 l 229 726 l 238 726 q 358 797 294 768 q 464 826 422 826 l 521 819 l 511 708 m 479 1119 l 519 1072 l 351 921 l 281 921 l 113 1072 l 153 1119 l 311 1021 l 321 1021 l 479 1119 z "},"ȷ":{"ha":426,"x_min":-24,"x_max":279,"o":"m 279 808 l 279 76 q 60 -247 279 -247 l -24 -240 l -11 -137 q 71 -143 28 -143 q 131 -131 114 -143 q 164 72 164 -108 l 164 808 l 279 808 z "},"ˆ":{"ha":696,"x_min":146,"x_max":553,"o":"m 553 963 l 513 915 l 354 1014 l 344 1014 l 186 915 l 146 963 l 314 1114 l 385 1114 l 553 963 z "},"ˇ":{"ha":440,"x_min":18,"x_max":425,"o":"m 385 1119 l 425 1072 l 257 921 l 186 921 l 18 1072 l 58 1119 l 217 1021 l 226 1021 l 385 1119 z "},"˚":{"ha":394,"x_min":81,"x_max":314,"o":"m 114 1103 q 131 1117 114 1103 q 197 1131 147 1131 q 281 1103 247 1131 q 314 1015 314 1076 q 281 926 314 953 q 197 899 247 899 q 114 926 147 899 q 81 1015 81 953 q 114 1103 81 1076 m 234 1056 q 229 1061 234 1056 q 197 1067 224 1067 q 159 1056 171 1067 q 147 1015 147 1046 q 159 973 147 983 q 197 963 171 963 q 234 973 224 963 q 244 1015 244 983 q 234 1056 244 1046 z "},"˜":{"ha":744,"x_min":132,"x_max":613,"o":"m 132 938 q 226 1078 132 1078 q 381 1044 269 1078 q 503 1011 493 1011 q 539 1074 519 1011 l 613 1064 q 588 956 613 989 q 520 924 563 924 q 364 958 478 924 q 242 993 250 993 q 204 929 226 993 l 132 938 z "},"̇":{"ha":514,"x_min":189,"x_max":325,"o":"m 189 947 l 189 1064 l 325 1064 l 325 947 l 189 947 z "},"–":{"ha":801,"x_min":69,"x_max":732,"o":"m 69 406 l 69 504 l 732 504 l 732 406 l 69 406 z "},"—":{"ha":1113,"x_min":97,"x_max":1015,"o":"m 97 406 l 97 504 l 1015 504 l 1015 406 l 97 406 z "},"‘":{"ha":314,"x_min":82,"x_max":232,"o":"m 178 1011 l 232 967 q 189 831 189 911 l 197 668 l 88 668 q 82 761 82 714 q 178 1011 83 925 z "},"’":{"ha":314,"x_min":82,"x_max":232,"o":"m 136 647 l 82 692 q 126 828 126 746 l 117 990 l 226 990 q 232 897 232 944 q 136 647 231 731 z "},"‚":{"ha":367,"x_min":86,"x_max":236,"o":"m 140 -158 l 86 -114 q 129 22 129 -58 l 121 185 l 231 185 q 236 92 236 139 q 140 -158 235 -72 z "},"“":{"ha":508,"x_min":82,"x_max":426,"o":"m 178 1011 l 232 967 q 189 831 189 911 l 197 668 l 88 668 q 82 761 82 714 q 178 1011 83 925 m 372 1011 l 426 967 q 383 831 383 911 l 392 668 l 282 668 q 276 761 276 714 q 372 1011 278 925 z "},"”":{"ha":508,"x_min":82,"x_max":426,"o":"m 331 647 l 276 692 q 319 828 319 747 l 311 990 l 421 990 q 426 897 426 944 q 331 647 425 733 m 136 647 l 82 692 q 125 828 125 747 l 117 990 l 226 990 q 232 897 232 944 q 136 647 231 733 z "},"„":{"ha":561,"x_min":86,"x_max":431,"o":"m 335 -160 l 281 -115 q 324 21 324 -60 l 315 183 l 425 183 q 431 90 431 138 q 335 -160 429 -74 m 140 -160 l 86 -115 q 129 21 129 -60 l 121 183 l 231 183 q 236 90 236 138 q 140 -160 235 -74 z "},"•":{"ha":517,"x_min":97,"x_max":419,"o":"m 97 613 q 97 655 97 613 q 144 736 97 697 q 258 775 190 775 q 373 735 326 775 q 419 613 419 696 q 373 490 419 529 q 258 450 326 450 q 144 490 190 450 q 97 613 97 529 z "},"‹":{"ha":392,"x_min":56,"x_max":338,"o":"m 338 176 l 251 122 l 56 458 l 251 794 l 338 742 l 168 464 l 168 454 l 338 176 z "},"›":{"ha":392,"x_min":54,"x_max":336,"o":"m 140 122 l 54 176 l 224 454 l 224 464 l 54 742 l 140 794 l 336 458 l 140 122 z "},"€":{"ha":825,"x_min":64,"x_max":772,"o":"m 64 356 l 64 447 l 685 447 l 685 356 l 272 356 q 353 115 289 179 q 456 81 388 81 q 592 100 524 81 q 696 139 660 119 l 732 158 l 772 67 q 733 43 758 57 q 632 6 708 29 q 481 -18 556 -18 q 253 69 339 -18 q 147 356 167 157 l 64 356 m 64 526 l 64 618 l 149 618 q 269 913 171 833 q 499 983 356 983 q 731 961 642 983 l 718 861 q 473 878 574 878 q 339 840 372 878 q 272 618 288 783 l 685 618 l 685 526 l 64 526 z "}}}
